<svg width="143" height="133" viewBox="0 0 143 133" fill="none" xmlns="http://www.w3.org/2000/svg">
<g clip-path="url(#clip0_147_693)">
<path d="M109.484 0H33.5156C15.0055 0 0 13.9561 0 31.1719V101.828C0 119.044 15.0055 133 33.5156 133H109.484C127.995 133 143 119.044 143 101.828V31.1719C143 13.9561 127.995 0 109.484 0Z" fill="#9B7A67"/>
<g clip-path="url(#clip1_147_693)">
<path d="M36.1321 17C29.228 17 24.119 23.2672 24.3478 30.0637C24.5676 36.5931 24.2821 45.0505 22.2294 51.9471C20.1705 58.8637 16.6879 63.2451 11 63.8078V70.1588C16.6879 70.7216 20.1705 75.1029 22.2294 82.0201C24.2821 88.9167 24.5676 97.373 24.3478 103.903C24.119 110.699 29.228 116.967 36.133 116.967H106.877C113.781 116.967 118.889 110.7 118.66 103.903C118.441 97.3735 118.726 88.9167 120.779 82.0201C122.839 75.1034 126.312 70.7211 132 70.1588V63.8078C126.312 63.2451 122.839 58.8637 120.779 51.9471C118.726 45.0515 118.441 36.5936 118.66 30.0637C118.889 23.2681 113.781 17 106.877 17H36.1311H36.1321ZM93.0342 78.5358C93.0342 87.8946 86.3036 93.5701 75.1338 93.5701H56.1188C55.575 93.57 55.0535 93.3458 54.669 92.947C54.2844 92.5481 54.0684 92.0072 54.0684 91.4431V42.5235C54.0684 42.2442 54.1214 41.9675 54.2244 41.7094C54.3274 41.4513 54.4785 41.2168 54.669 41.0192C54.8594 40.8217 55.0855 40.665 55.3344 40.558C55.5832 40.4511 55.8499 40.3961 56.1193 40.3961H75.0251C84.3388 40.3961 90.4512 45.6289 90.4512 53.6623C90.4512 59.301 86.339 64.349 81.1006 65.2328V65.5275C88.2325 66.3387 93.0342 71.4608 93.0342 78.5358ZM73.0598 47.1387H62.2184V63.0211H71.3502C78.4088 63.0211 82.3016 60.073 82.3016 54.8034C82.3016 49.8657 78.9538 47.1387 73.0598 47.1387ZM62.2184 69.323V86.8255H73.4592C80.808 86.8255 84.7018 83.7672 84.7018 78.0191C84.7018 72.2701 80.6998 69.3221 72.9865 69.3221H62.2184V69.323Z" fill="#7E13F8"/>
</g>
</g>
<defs>
<clipPath id="clip0_147_693">
<rect width="143" height="133" fill="white"/>
</clipPath>
<clipPath id="clip1_147_693">
<rect width="121" height="100" fill="white" transform="translate(11 17)"/>
</clipPath>
</defs>
</svg>
