<svg width="143" height="133" viewBox="0 0 143 133" fill="none" xmlns="http://www.w3.org/2000/svg">
<g clip-path="url(#clip0_147_700)">
<path d="M109.484 0H33.5156C15.0055 0 0 13.9561 0 31.1719V101.828C0 119.044 15.0055 133 33.5156 133H109.484C127.995 133 143 119.044 143 101.828V31.1719C143 13.9561 127.995 0 109.484 0Z" fill="#9B7A67"/>
<path d="M36.4726 110.204L28.6818 22H114.318L106.517 110.19L71.448 120L36.4726 110.204Z" fill="#1572B6"/>
<path d="M71.5 112.503L99.8397 104.575L106.507 29.2134H71.5V112.503Z" fill="#33A9DC"/>
<path d="M71.5 61.1685H85.6872L86.6654 50.091H71.5V39.2725H98.3828L98.1261 42.174L95.4933 71.987H71.5V61.1685Z" fill="white"/>
<path d="M71.5659 89.263L71.5174 89.277L59.5779 86.022L58.8148 77.3945H48.0513L49.5532 94.38L71.5139 100.533L71.5659 100.519V89.263Z" fill="#EBEBEB"/>
<path d="M84.7749 71.5286L83.4845 86.0151L71.5277 89.2701V100.526L93.5057 94.3801L93.6688 92.5531L95.5315 71.5286H84.7749Z" fill="white"/>
<path d="M71.5382 39.2725V50.091H45.6405L45.4254 47.6585L44.9363 42.174L44.6796 39.2725H71.5382ZM71.5 61.1685V71.987H59.7097L59.4947 69.5545L59.009 64.07L58.7523 61.1685H71.5Z" fill="#EBEBEB"/>
</g>
<defs>
<clipPath id="clip0_147_700">
<rect width="143" height="133" fill="white"/>
</clipPath>
</defs>
</svg>
