<svg width="838" height="73" viewBox="0 0 838 73" fill="none" xmlns="http://www.w3.org/2000/svg">
<g filter="url(#filter0_d_130_668)">
<g filter="url(#filter1_d_130_668)">
<path d="M85.2656 5.36719H93.375L103.312 29.0156L105.609 34.7344L107.414 29.0156L111.07 20.3906L104.484 5.36719H112.125L114.82 12.5156L117.328 5.36719H124.969L118.383 20.3906L122.109 29.2031L124.359 34.7344L126.094 29.1094L136.078 5.36719H144.188L128.016 42H120.656L117.398 34.7344L114.75 27.6797L112.102 34.7344L108.797 42H101.438L85.2656 5.36719ZM149.859 5.36719H181.055V11.8828H157.289V19.1953H178.336V25.3125H157.289V35.5078H181.547V42H149.859V5.36719ZM189.797 5.36719H209.367C211.758 5.36719 213.836 5.625 215.602 6.14062C217.383 6.64062 218.859 7.33594 220.031 8.22656C221.203 9.11719 222.07 10.1797 222.633 11.4141C223.211 12.6328 223.5 13.9531 223.5 15.375C223.5 17.7031 222.766 19.7422 221.297 21.4922C222.984 22.4922 224.242 23.7891 225.07 25.3828C225.898 26.9766 226.312 28.7891 226.312 30.8203C226.312 32.5234 226.023 34.0625 225.445 35.4375C224.883 36.8125 224.016 37.9922 222.844 38.9766C221.688 39.9453 220.219 40.6953 218.438 41.2266C216.672 41.7422 214.586 42 212.18 42H189.797V5.36719ZM212.227 19.4297C212.867 19.4297 213.492 19.4531 214.102 19.5C215.148 18.5 215.672 17.3594 215.672 16.0781C215.672 14.75 215.148 13.7266 214.102 13.0078C213.07 12.2734 211.555 11.9062 209.555 11.9062H197.227V19.4297H212.227ZM212.367 35.5312C214.367 35.5312 215.883 35.1016 216.914 34.2422C217.961 33.3828 218.484 32.1719 218.484 30.6094C218.484 29.0469 217.961 27.8281 216.914 26.9531C215.883 26.0781 214.367 25.6406 212.367 25.6406H197.227V35.5312H212.367ZM249.797 5.36719H263.227C267.148 5.36719 270.555 5.78906 273.445 6.63281C276.336 7.47656 278.727 8.6875 280.617 10.2656C282.523 11.8281 283.938 13.7344 284.859 15.9844C285.797 18.2188 286.266 20.7344 286.266 23.5312C286.266 26.1875 285.805 28.6484 284.883 30.9141C283.961 33.1641 282.555 35.1172 280.664 36.7734C278.773 38.4141 276.383 39.7031 273.492 40.6406C270.602 41.5625 267.195 42.0234 263.273 42.0234L249.797 42V5.36719ZM265.055 35.5781C267.273 35.5781 269.219 35.2969 270.891 34.7344C272.562 34.1562 273.953 33.3438 275.062 32.2969C276.188 31.25 277.031 29.9844 277.594 28.5C278.156 27.0156 278.438 25.3594 278.438 23.5312C278.438 21.7344 278.156 20.1172 277.594 18.6797C277.031 17.2266 276.188 16 275.062 15C273.953 13.9844 272.562 13.2031 270.891 12.6562C269.219 12.1094 267.273 11.8359 265.055 11.8359H257.227V35.5781H265.055ZM293.719 5.36719H324.914V11.8828H301.148V19.1953H322.195V25.3125H301.148V35.5078H325.406V42H293.719V5.36719ZM328.758 5.36719H336.984L348.492 33.3047L360 5.36719H368.227L352.172 42H344.812L328.758 5.36719ZM373.734 5.36719H404.93V11.8828H381.164V19.1953H402.211V25.3125H381.164V35.5078H405.422V42H373.734V5.36719ZM413.672 5.36719H421.102V35.4844H442.406V42H413.672V5.36719ZM447.469 23.5781C447.469 20.8125 447.977 18.2812 448.992 15.9844C450.008 13.6875 451.43 11.7188 453.258 10.0781C455.102 8.42187 457.305 7.14063 459.867 6.23438C462.445 5.32812 465.297 4.875 468.422 4.875C471.531 4.875 474.375 5.32812 476.953 6.23438C479.531 7.14063 481.734 8.42187 483.562 10.0781C485.406 11.7188 486.836 13.6875 487.852 15.9844C488.867 18.2812 489.375 20.8125 489.375 23.5781C489.375 26.3594 488.867 28.9141 487.852 31.2422C486.836 33.5547 485.406 35.5469 483.562 37.2188C481.734 38.8906 479.531 40.1953 476.953 41.1328C474.375 42.0547 471.531 42.5156 468.422 42.5156C465.297 42.5156 462.445 42.0547 459.867 41.1328C457.305 40.1953 455.102 38.8906 453.258 37.2188C451.43 35.5469 450.008 33.5547 448.992 31.2422C447.977 28.9141 447.469 26.3594 447.469 23.5781ZM454.898 23.5781C454.898 25.4688 455.234 27.1719 455.906 28.6875C456.594 30.2031 457.539 31.5 458.742 32.5781C459.961 33.6406 461.391 34.4609 463.031 35.0391C464.688 35.6172 466.484 35.9062 468.422 35.9062C470.359 35.9062 472.148 35.6172 473.789 35.0391C475.445 34.4609 476.875 33.6406 478.078 32.5781C479.281 31.5 480.227 30.2031 480.914 28.6875C481.602 27.1719 481.945 25.4688 481.945 23.5781C481.945 21.6875 481.602 19.9922 480.914 18.4922C480.227 16.9922 479.281 15.7266 478.078 14.6953C476.875 13.6484 475.445 12.8516 473.789 12.3047C472.148 11.7578 470.359 11.4844 468.422 11.4844C466.484 11.4844 464.688 11.7578 463.031 12.3047C461.391 12.8516 459.961 13.6484 458.742 14.6953C457.539 15.7266 456.594 16.9922 455.906 18.4922C455.234 19.9922 454.898 21.6875 454.898 23.5781ZM497.625 5.36719H516.938C519.75 5.36719 522.188 5.67188 524.25 6.28125C526.312 6.89062 528.023 7.77344 529.383 8.92969C530.742 10.0703 531.75 11.4687 532.406 13.125C533.078 14.7813 533.414 16.6484 533.414 18.7266C533.414 20.6797 533.086 22.4844 532.43 24.1406C531.773 25.7969 530.766 27.2344 529.406 28.4531C528.062 29.6562 526.359 30.6016 524.297 31.2891C522.234 31.9609 519.797 32.2969 516.984 32.2969L505.055 32.2734V42H497.625V5.36719ZM517.125 25.8516C518.531 25.8516 519.758 25.6875 520.805 25.3594C521.867 25.0156 522.75 24.5391 523.453 23.9297C524.172 23.3047 524.703 22.5547 525.047 21.6797C525.406 20.7891 525.586 19.8047 525.586 18.7266C525.586 16.5547 524.875 14.8672 523.453 13.6641C522.047 12.4453 519.938 11.8359 517.125 11.8359H505.055V25.8516H517.125ZM541.547 5.36719H572.742V11.8828H548.977V19.1953H570.023V25.3125H548.977V35.5078H573.234V42H541.547V5.36719ZM581.484 5.36719H600.117C602.93 5.36719 605.367 5.66406 607.43 6.25781C609.492 6.83594 611.203 7.67969 612.562 8.78906C613.922 9.89844 614.93 11.25 615.586 12.8438C616.258 14.4375 616.594 16.2422 616.594 18.2578C616.594 19.6172 616.43 20.9141 616.102 22.1484C615.773 23.3672 615.266 24.4922 614.578 25.5234C613.906 26.5547 613.055 27.4766 612.023 28.2891C610.992 29.0859 609.781 29.75 608.391 30.2812L616.359 42H607.266L600.375 31.5938H600.164L588.914 31.5703V42H581.484V5.36719ZM600.305 25.1484C601.711 25.1484 602.938 24.9844 603.984 24.6562C605.047 24.3281 605.93 23.8672 606.633 23.2734C607.352 22.6797 607.883 21.9609 608.227 21.1172C608.586 20.2578 608.766 19.3047 608.766 18.2578C608.766 16.2109 608.062 14.6328 606.656 13.5234C605.25 12.3984 603.133 11.8359 600.305 11.8359H588.914V25.1484H600.305Z" fill="white" fill-opacity="0.06" shape-rendering="crispEdges"/>
<path d="M85.2656 5.36719V4.36719H83.7311L84.3508 5.77104L85.2656 5.36719ZM93.375 5.36719L94.2969 4.97978L94.0395 4.36719H93.375V5.36719ZM103.312 29.0156L104.24 28.6429L104.237 28.6355L104.234 28.6282L103.312 29.0156ZM105.609 34.7344L104.681 35.1071L105.722 37.699L106.563 35.0353L105.609 34.7344ZM107.414 29.0156L106.493 28.6253L106.475 28.6692L106.46 28.7147L107.414 29.0156ZM111.07 20.3906L111.991 20.7809L112.159 20.384L111.986 19.9891L111.07 20.3906ZM104.484 5.36719V4.36719H102.954L103.569 5.76868L104.484 5.36719ZM112.125 5.36719L113.061 5.01438L112.817 4.36719H112.125V5.36719ZM114.82 12.5156L113.885 12.8684L114.854 15.4399L115.764 12.8467L114.82 12.5156ZM117.328 5.36719V4.36719H116.619L116.385 5.03615L117.328 5.36719ZM124.969 5.36719L125.885 5.76868L126.499 4.36719H124.969V5.36719ZM118.383 20.3906L117.467 19.9891L117.294 20.3835L117.462 20.7801L118.383 20.3906ZM122.109 29.2031L123.036 28.8263L123.03 28.8136L122.109 29.2031ZM124.359 34.7344L123.433 35.1112L124.489 37.7074L125.315 35.029L124.359 34.7344ZM126.094 29.1094L125.172 28.7217L125.153 28.7674L125.138 28.8147L126.094 29.1094ZM136.078 5.36719V4.36719H135.414L135.156 4.97954L136.078 5.36719ZM144.188 5.36719L145.102 5.77104L145.722 4.36719H144.188V5.36719ZM128.016 42V43H128.667L128.93 42.4039L128.016 42ZM120.656 42L119.744 42.4091L120.009 43H120.656V42ZM117.398 34.7344L116.462 35.0858L116.473 35.115L116.486 35.1435L117.398 34.7344ZM114.75 27.6797L115.686 27.3282L114.75 24.8344L113.814 27.3282L114.75 27.6797ZM112.102 34.7344L113.012 35.1484L113.026 35.1176L113.038 35.0858L112.102 34.7344ZM108.797 42V43H109.441L109.707 42.414L108.797 42ZM101.438 42L100.523 42.4039L100.786 43H101.438V42ZM85.2656 6.36719H93.375V4.36719H85.2656V6.36719ZM92.4531 5.75459L102.391 29.403L104.234 28.6282L94.2969 4.97978L92.4531 5.75459ZM102.385 29.3883L104.681 35.1071L106.537 34.3617L104.24 28.6429L102.385 29.3883ZM106.563 35.0353L108.368 29.3166L106.46 28.7147L104.656 34.4334L106.563 35.0353ZM108.335 29.4059L111.991 20.7809L110.15 20.0003L106.493 28.6253L108.335 29.4059ZM111.986 19.9891L105.4 4.96569L103.569 5.76868L110.154 20.7921L111.986 19.9891ZM104.484 6.36719H112.125V4.36719H104.484V6.36719ZM111.189 5.71999L113.885 12.8684L115.756 12.1628L113.061 5.01438L111.189 5.71999ZM115.764 12.8467L118.272 5.69823L116.385 5.03615L113.877 12.1846L115.764 12.8467ZM117.328 6.36719H124.969V4.36719H117.328V6.36719ZM124.053 4.96569L117.467 19.9891L119.299 20.7921L125.885 5.76868L124.053 4.96569ZM117.462 20.7801L121.188 29.5926L123.03 28.8136L119.304 20.0011L117.462 20.7801ZM121.183 29.5799L123.433 35.1112L125.286 34.3576L123.036 28.8263L121.183 29.5799ZM125.315 35.029L127.049 29.404L125.138 28.8147L123.404 34.4397L125.315 35.029ZM127.016 29.497L137 5.75484L135.156 4.97954L125.172 28.7217L127.016 29.497ZM136.078 6.36719H144.188V4.36719H136.078V6.36719ZM143.273 4.96333L127.101 41.5961L128.93 42.4039L145.102 5.77104L143.273 4.96333ZM128.016 41H120.656V43H128.016V41ZM121.569 41.5909L118.311 34.3252L116.486 35.1435L119.744 42.4091L121.569 41.5909ZM118.335 34.3829L115.686 27.3282L113.814 28.0312L116.462 35.0858L118.335 34.3829ZM113.814 27.3282L111.165 34.3829L113.038 35.0858L115.686 28.0312L113.814 27.3282ZM111.191 34.3204L107.887 41.586L109.707 42.414L113.012 35.1484L111.191 34.3204ZM108.797 41H101.438V43H108.797V41ZM102.352 41.5961L86.1805 4.96333L84.3508 5.77104L100.523 42.4039L102.352 41.5961ZM149.859 5.36719V4.36719H148.859V5.36719H149.859ZM181.055 5.36719H182.055V4.36719H181.055V5.36719ZM181.055 11.8828V12.8828H182.055V11.8828H181.055ZM157.289 11.8828V10.8828H156.289V11.8828H157.289ZM157.289 19.1953H156.289V20.1953H157.289V19.1953ZM178.336 19.1953H179.336V18.1953H178.336V19.1953ZM178.336 25.3125V26.3125H179.336V25.3125H178.336ZM157.289 25.3125V24.3125H156.289V25.3125H157.289ZM157.289 35.5078H156.289V36.5078H157.289V35.5078ZM181.547 35.5078H182.547V34.5078H181.547V35.5078ZM181.547 42V43H182.547V42H181.547ZM149.859 42H148.859V43H149.859V42ZM149.859 6.36719H181.055V4.36719H149.859V6.36719ZM180.055 5.36719V11.8828H182.055V5.36719H180.055ZM181.055 10.8828H157.289V12.8828H181.055V10.8828ZM156.289 11.8828V19.1953H158.289V11.8828H156.289ZM157.289 20.1953H178.336V18.1953H157.289V20.1953ZM177.336 19.1953V25.3125H179.336V19.1953H177.336ZM178.336 24.3125H157.289V26.3125H178.336V24.3125ZM156.289 25.3125V35.5078H158.289V25.3125H156.289ZM157.289 36.5078H181.547V34.5078H157.289V36.5078ZM180.547 35.5078V42H182.547V35.5078H180.547ZM181.547 41H149.859V43H181.547V41ZM150.859 42V5.36719H148.859V42H150.859ZM189.797 5.36719V4.36719H188.797V5.36719H189.797ZM215.602 6.14062L215.321 7.10058L215.331 7.10341L215.602 6.14062ZM222.633 11.4141L221.723 11.8287L221.726 11.8357L221.729 11.8426L222.633 11.4141ZM221.297 21.4922L220.531 20.8493L219.773 21.7518L220.787 22.3525L221.297 21.4922ZM225.445 35.4375L224.523 35.0499L224.52 35.0589L225.445 35.4375ZM222.844 38.9766L223.486 39.7431L223.487 39.7423L222.844 38.9766ZM218.438 41.2266L218.718 42.1865L218.723 42.1848L218.438 41.2266ZM189.797 42H188.797V43H189.797V42ZM214.102 19.5L214.025 20.4971L214.47 20.5313L214.792 20.2231L214.102 19.5ZM214.102 13.0078L213.521 13.8224L213.528 13.8274L213.536 13.8322L214.102 13.0078ZM197.227 11.9062V10.9062H196.227V11.9062H197.227ZM197.227 19.4297H196.227V20.4297H197.227V19.4297ZM216.914 34.2422L216.28 33.4692L216.274 33.474L216.914 34.2422ZM216.914 26.9531L216.267 27.7157L216.273 27.7204L216.914 26.9531ZM197.227 25.6406V24.6406H196.227V25.6406H197.227ZM197.227 35.5312H196.227V36.5312H197.227V35.5312ZM189.797 6.36719H209.367V4.36719H189.797V6.36719ZM209.367 6.36719C211.69 6.36719 213.669 6.61808 215.321 7.10053L215.882 5.18072C214.003 4.63192 211.826 4.36719 209.367 4.36719V6.36719ZM215.331 7.10341C217.021 7.57782 218.376 8.22498 219.426 9.02273L220.636 7.4304C219.342 6.44689 217.744 5.70343 215.872 5.17784L215.331 7.10341ZM219.426 9.02273C220.478 9.82206 221.235 10.7574 221.723 11.8287L223.543 10.9994C222.906 9.60202 221.928 8.41232 220.636 7.4304L219.426 9.02273ZM221.729 11.8426C222.24 12.9202 222.5 14.0932 222.5 15.375H224.5C224.5 13.8131 224.181 12.3454 223.536 10.9855L221.729 11.8426ZM222.5 15.375C222.5 17.4729 221.845 19.2831 220.531 20.8493L222.063 22.1351C223.686 20.2012 224.5 17.9334 224.5 15.375H222.5ZM220.787 22.3525C222.329 23.2664 223.449 24.431 224.183 25.8439L225.958 24.9217C225.036 23.1471 223.639 21.718 221.807 20.6319L220.787 22.3525ZM224.183 25.8439C224.928 27.2775 225.312 28.9283 225.312 30.8203H227.312C227.312 28.6498 226.869 26.6756 225.958 24.9217L224.183 25.8439ZM225.312 30.8203C225.312 32.4091 225.043 33.8138 224.523 35.0499L226.367 35.8251C227.004 34.3112 227.312 32.6378 227.312 30.8203H225.312ZM224.52 35.0589C224.021 36.2792 223.252 37.3275 222.201 38.2109L223.487 39.7423C224.779 38.6569 225.745 37.3458 226.371 35.8161L224.52 35.0589ZM222.202 38.21C221.171 39.0734 219.832 39.7672 218.152 40.2683L218.723 42.1848C220.606 41.6234 222.204 40.8172 223.486 39.7431L222.202 38.21ZM218.157 40.2667C216.506 40.749 214.518 41 212.18 41V43C214.653 43 216.838 42.7354 218.718 42.1865L218.157 40.2667ZM212.18 41H189.797V43H212.18V41ZM190.797 42V5.36719H188.797V42H190.797ZM212.227 20.4297C212.843 20.4297 213.442 20.4522 214.025 20.4971L214.178 18.5029C213.542 18.454 212.892 18.4297 212.227 18.4297V20.4297ZM214.792 20.2231C216.009 19.0614 216.672 17.6692 216.672 16.0781H214.672C214.672 17.0495 214.288 17.9386 213.411 18.7769L214.792 20.2231ZM216.672 16.0781C216.672 14.4385 216.001 13.0986 214.668 12.1834L213.536 13.8322C214.296 14.3545 214.672 15.0615 214.672 16.0781H216.672ZM214.682 12.1932C213.408 11.2866 211.651 10.9062 209.555 10.9062V12.9062C211.458 12.9062 212.732 13.2603 213.521 13.8224L214.682 12.1932ZM209.555 10.9062H197.227V12.9062H209.555V10.9062ZM196.227 11.9062V19.4297H198.227V11.9062H196.227ZM197.227 20.4297H212.227V18.4297H197.227V20.4297ZM212.367 36.5312C214.49 36.5312 216.273 36.0777 217.554 35.0104L216.274 33.474C215.492 34.1254 214.244 34.5312 212.367 34.5312V36.5312ZM217.549 35.0151C218.864 33.9354 219.484 32.4197 219.484 30.6094H217.484C217.484 31.924 217.058 32.8303 216.28 33.4693L217.549 35.0151ZM219.484 30.6094C219.484 28.7987 218.864 27.2797 217.555 26.1858L216.273 27.7204C217.058 28.3766 217.484 29.295 217.484 30.6094H219.484ZM217.561 26.1906C216.28 25.1036 214.494 24.6406 212.367 24.6406V26.6406C214.24 26.6406 215.486 27.0527 216.267 27.7156L217.561 26.1906ZM212.367 24.6406H197.227V26.6406H212.367V24.6406ZM196.227 25.6406V35.5312H198.227V25.6406H196.227ZM197.227 36.5312H212.367V34.5312H197.227V36.5312ZM249.797 5.36719V4.36719H248.797V5.36719H249.797ZM280.617 10.2656L279.976 11.0334L279.983 11.039L280.617 10.2656ZM284.859 15.9844L283.934 16.3635L283.937 16.3713L284.859 15.9844ZM284.883 30.9141L285.808 31.2932L285.809 31.291L284.883 30.9141ZM280.664 36.7734L281.319 37.5287L281.323 37.5256L280.664 36.7734ZM273.492 40.6406L273.796 41.5934L273.801 41.5918L273.492 40.6406ZM263.273 42.0234L263.272 43.0234H263.273V42.0234ZM249.797 42H248.797V42.9983L249.795 43L249.797 42ZM270.891 34.7344L271.21 35.6822L271.217 35.6795L270.891 34.7344ZM275.062 32.2969L274.381 31.5648L274.376 31.5696L275.062 32.2969ZM277.594 18.6797L276.661 19.0407L276.663 19.0441L277.594 18.6797ZM275.062 15L274.387 15.7376L274.393 15.7425L274.398 15.7474L275.062 15ZM257.227 11.8359V10.8359H256.227V11.8359H257.227ZM257.227 35.5781H256.227V36.5781H257.227V35.5781ZM249.797 6.36719H263.227V4.36719H249.797V6.36719ZM263.227 6.36719C267.081 6.36719 270.388 6.78219 273.165 7.59275L273.726 5.67287C270.721 4.79593 267.216 4.36719 263.227 4.36719V6.36719ZM273.165 7.59275C275.952 8.40631 278.212 9.56076 279.976 11.0333L281.258 9.49792C279.241 7.81424 276.72 6.54681 273.726 5.67287L273.165 7.59275ZM279.983 11.039C281.763 12.4978 283.076 14.2693 283.934 16.3635L285.785 15.6052C284.799 13.1995 283.284 11.1584 281.251 9.49223L279.983 11.039ZM283.937 16.3713C284.816 18.4657 285.266 20.8469 285.266 23.5312H287.266C287.266 20.6218 286.778 17.9718 285.781 15.5975L283.937 16.3713ZM285.266 23.5312C285.266 26.0695 284.826 28.4012 283.957 30.5372L285.809 31.291C286.784 28.8957 287.266 26.3055 287.266 23.5312H285.266ZM283.957 30.5349C283.096 32.6367 281.783 34.4635 280.005 36.0212L281.323 37.5256C283.326 35.7709 284.826 33.6914 285.808 31.2932L283.957 30.5349ZM280.009 36.0182C278.239 37.5542 275.973 38.7846 273.184 39.6894L273.801 41.5918C276.792 40.6216 279.308 39.2739 281.319 37.5287L280.009 36.0182ZM273.188 39.6879C270.42 40.5708 267.121 41.0234 263.273 41.0234V43.0234C267.27 43.0234 270.783 42.5542 273.796 41.5933L273.188 39.6879ZM263.275 41.0234L249.799 41L249.795 43L263.272 43.0234L263.275 41.0234ZM250.797 42V5.36719H248.797V42H250.797ZM265.055 36.5781C267.355 36.5781 269.412 36.2868 271.21 35.6822L270.572 33.7866C269.025 34.3069 267.192 34.5781 265.055 34.5781V36.5781ZM271.217 35.6795C273.002 35.0624 274.521 34.1826 275.749 33.0242L274.376 31.5696C273.385 32.5049 272.123 33.2501 270.564 33.7893L271.217 35.6795ZM275.744 33.0289C276.985 31.8738 277.914 30.4776 278.529 28.8544L276.659 28.1456C276.149 29.4912 275.39 30.6262 274.381 31.5648L275.744 33.0289ZM278.529 28.8544C279.14 27.241 279.438 25.4623 279.438 23.5312H277.438C277.438 25.2564 277.172 26.7903 276.659 28.1456L278.529 28.8544ZM279.438 23.5312C279.438 21.6298 279.14 19.8863 278.525 18.3153L276.663 19.0441C277.173 20.3481 277.438 21.8389 277.438 23.5312H279.438ZM278.526 18.3187C277.909 16.7227 276.975 15.362 275.727 14.2526L274.398 15.7474C275.4 16.638 276.154 17.7305 276.661 19.0407L278.526 18.3187ZM275.738 14.2624C274.507 13.1358 272.986 12.2895 271.202 11.7058L270.58 13.6067C272.139 14.1168 273.399 14.8329 274.387 15.7376L275.738 14.2624ZM271.202 11.7058C269.407 11.1188 267.353 10.8359 265.055 10.8359V12.8359C267.194 12.8359 269.03 13.0999 270.58 13.6067L271.202 11.7058ZM265.055 10.8359H257.227V12.8359H265.055V10.8359ZM256.227 11.8359V35.5781H258.227V11.8359H256.227ZM257.227 36.5781H265.055V34.5781H257.227V36.5781ZM293.719 5.36719V4.36719H292.719V5.36719H293.719ZM324.914 5.36719H325.914V4.36719H324.914V5.36719ZM324.914 11.8828V12.8828H325.914V11.8828H324.914ZM301.148 11.8828V10.8828H300.148V11.8828H301.148ZM301.148 19.1953H300.148V20.1953H301.148V19.1953ZM322.195 19.1953H323.195V18.1953H322.195V19.1953ZM322.195 25.3125V26.3125H323.195V25.3125H322.195ZM301.148 25.3125V24.3125H300.148V25.3125H301.148ZM301.148 35.5078H300.148V36.5078H301.148V35.5078ZM325.406 35.5078H326.406V34.5078H325.406V35.5078ZM325.406 42V43H326.406V42H325.406ZM293.719 42H292.719V43H293.719V42ZM293.719 6.36719H324.914V4.36719H293.719V6.36719ZM323.914 5.36719V11.8828H325.914V5.36719H323.914ZM324.914 10.8828H301.148V12.8828H324.914V10.8828ZM300.148 11.8828V19.1953H302.148V11.8828H300.148ZM301.148 20.1953H322.195V18.1953H301.148V20.1953ZM321.195 19.1953V25.3125H323.195V19.1953H321.195ZM322.195 24.3125H301.148V26.3125H322.195V24.3125ZM300.148 25.3125V35.5078H302.148V25.3125H300.148ZM301.148 36.5078H325.406V34.5078H301.148V36.5078ZM324.406 35.5078V42H326.406V35.5078H324.406ZM325.406 41H293.719V43H325.406V41ZM294.719 42V5.36719H292.719V42H294.719ZM328.758 5.36719V4.36719H327.228L327.842 5.76859L328.758 5.36719ZM336.984 5.36719L337.909 4.98632L337.654 4.36719H336.984V5.36719ZM348.492 33.3047L347.568 33.6856L348.492 35.9303L349.417 33.6856L348.492 33.3047ZM360 5.36719V4.36719H359.33L359.075 4.98632L360 5.36719ZM368.227 5.36719L369.142 5.76859L369.757 4.36719H368.227V5.36719ZM352.172 42V43H352.825L353.088 42.4014L352.172 42ZM344.812 42L343.897 42.4014L344.159 43H344.812V42ZM328.758 6.36719H336.984V4.36719H328.758V6.36719ZM336.06 5.74805L347.568 33.6856L349.417 32.9238L337.909 4.98632L336.06 5.74805ZM349.417 33.6856L360.925 5.74805L359.075 4.98632L347.568 32.9238L349.417 33.6856ZM360 6.36719H368.227V4.36719H360V6.36719ZM367.311 4.96578L351.256 41.5986L353.088 42.4014L369.142 5.76859L367.311 4.96578ZM352.172 41H344.812V43H352.172V41ZM345.728 41.5986L329.674 4.96578L327.842 5.76859L343.897 42.4014L345.728 41.5986ZM373.734 5.36719V4.36719H372.734V5.36719H373.734ZM404.93 5.36719H405.93V4.36719H404.93V5.36719ZM404.93 11.8828V12.8828H405.93V11.8828H404.93ZM381.164 11.8828V10.8828H380.164V11.8828H381.164ZM381.164 19.1953H380.164V20.1953H381.164V19.1953ZM402.211 19.1953H403.211V18.1953H402.211V19.1953ZM402.211 25.3125V26.3125H403.211V25.3125H402.211ZM381.164 25.3125V24.3125H380.164V25.3125H381.164ZM381.164 35.5078H380.164V36.5078H381.164V35.5078ZM405.422 35.5078H406.422V34.5078H405.422V35.5078ZM405.422 42V43H406.422V42H405.422ZM373.734 42H372.734V43H373.734V42ZM373.734 6.36719H404.93V4.36719H373.734V6.36719ZM403.93 5.36719V11.8828H405.93V5.36719H403.93ZM404.93 10.8828H381.164V12.8828H404.93V10.8828ZM380.164 11.8828V19.1953H382.164V11.8828H380.164ZM381.164 20.1953H402.211V18.1953H381.164V20.1953ZM401.211 19.1953V25.3125H403.211V19.1953H401.211ZM402.211 24.3125H381.164V26.3125H402.211V24.3125ZM380.164 25.3125V35.5078H382.164V25.3125H380.164ZM381.164 36.5078H405.422V34.5078H381.164V36.5078ZM404.422 35.5078V42H406.422V35.5078H404.422ZM405.422 41H373.734V43H405.422V41ZM374.734 42V5.36719H372.734V42H374.734ZM413.672 5.36719V4.36719H412.672V5.36719H413.672ZM421.102 5.36719H422.102V4.36719H421.102V5.36719ZM421.102 35.4844H420.102V36.4844H421.102V35.4844ZM442.406 35.4844H443.406V34.4844H442.406V35.4844ZM442.406 42V43H443.406V42H442.406ZM413.672 42H412.672V43H413.672V42ZM413.672 6.36719H421.102V4.36719H413.672V6.36719ZM420.102 5.36719V35.4844H422.102V5.36719H420.102ZM421.102 36.4844H442.406V34.4844H421.102V36.4844ZM441.406 35.4844V42H443.406V35.4844H441.406ZM442.406 41H413.672V43H442.406V41ZM414.672 42V5.36719H412.672V42H414.672ZM453.258 10.0781L453.926 10.8224L453.926 10.822L453.258 10.0781ZM459.867 6.23438L459.536 5.29096L459.534 5.2916L459.867 6.23438ZM483.562 10.0781L482.891 10.8192L482.898 10.8252L483.562 10.0781ZM487.852 31.2422L488.767 31.6443L488.768 31.642L487.852 31.2422ZM483.562 37.2188L482.891 36.478L482.888 36.4808L483.562 37.2188ZM476.953 41.1328L477.29 42.0744L477.295 42.0726L476.953 41.1328ZM459.867 41.1328L459.524 42.072L459.531 42.0744L459.867 41.1328ZM453.258 37.2188L452.583 37.9567L452.586 37.9595L453.258 37.2188ZM448.992 31.2422L448.076 31.642L448.077 31.6443L448.992 31.2422ZM455.906 28.6875L454.992 29.0928L454.996 29.1006L455.906 28.6875ZM458.742 32.5781L458.075 33.3229L458.085 33.3319L458.742 32.5781ZM463.031 35.0391L462.699 35.9822L462.702 35.9832L463.031 35.0391ZM473.789 35.0391L473.46 34.0949L473.457 34.0959L473.789 35.0391ZM478.078 32.5781L478.74 33.3277L478.745 33.3229L478.078 32.5781ZM478.078 14.6953L477.422 15.4497L477.427 15.4546L478.078 14.6953ZM473.789 12.3047L473.473 13.2534L473.476 13.2543L473.789 12.3047ZM463.031 12.3047L462.718 11.3551L462.715 11.356L463.031 12.3047ZM458.742 14.6953L459.393 15.4546L459.394 15.4539L458.742 14.6953ZM455.906 18.4922L454.997 18.0755L454.994 18.0834L455.906 18.4922ZM448.469 23.5781C448.469 20.9376 448.953 18.5459 449.907 16.3888L448.078 15.58C447 18.0166 446.469 20.6874 446.469 23.5781H448.469ZM449.907 16.3888C450.866 14.2184 452.205 12.3663 453.926 10.8224L452.59 9.33388C450.654 11.0712 449.149 13.1566 448.078 15.58L449.907 16.3888ZM453.926 10.822C455.663 9.26151 457.75 8.04395 460.201 7.17715L459.534 5.2916C456.86 6.2373 454.54 7.58224 452.59 9.3342L453.926 10.822ZM460.199 7.17779C462.656 6.31394 465.394 5.875 468.422 5.875V3.875C465.2 3.875 462.234 4.34231 459.536 5.29096L460.199 7.17779ZM468.422 5.875C471.434 5.875 474.164 6.31377 476.622 7.17779L477.285 5.29096C474.586 4.34248 471.629 3.875 468.422 3.875V5.875ZM476.622 7.17779C479.088 8.04466 481.172 9.26153 482.891 10.8192L484.234 9.33704C482.297 7.58222 479.975 6.23659 477.285 5.29096L476.622 7.17779ZM482.898 10.8252C484.633 12.3691 485.978 14.2203 486.937 16.3888L488.766 15.58C487.694 13.1547 486.18 11.0684 484.227 9.33107L482.898 10.8252ZM486.937 16.3888C487.891 18.5459 488.375 20.9376 488.375 23.5781H490.375C490.375 20.6874 489.844 18.0166 488.766 15.58L486.937 16.3888ZM488.375 23.5781C488.375 26.2349 487.891 28.6519 486.935 30.8423L488.768 31.642C489.844 29.1762 490.375 26.4838 490.375 23.5781H488.375ZM486.936 30.8401C485.976 33.0257 484.629 34.902 482.891 36.478L484.234 37.9595C486.184 36.1918 487.696 34.0836 488.767 31.6443L486.936 30.8401ZM482.888 36.4808C481.166 38.0552 479.08 39.2955 476.611 40.193L477.295 42.0726C479.983 41.0951 482.303 39.7261 484.237 37.9567L482.888 36.4808ZM476.616 40.1912C474.16 41.0696 471.432 41.5156 468.422 41.5156V43.5156C471.631 43.5156 474.59 43.0398 477.29 42.0744L476.616 40.1912ZM468.422 41.5156C465.396 41.5156 462.66 41.0694 460.204 40.1912L459.531 42.0744C462.231 43.04 465.198 43.5156 468.422 43.5156V41.5156ZM460.211 40.1937C457.758 39.2962 455.669 38.0552 453.93 36.478L452.586 37.9595C454.534 39.7261 456.852 41.0944 459.524 42.0719L460.211 40.1937ZM453.933 36.4808C452.209 34.9048 450.869 33.0277 449.908 30.8401L448.077 31.6443C449.147 34.0817 450.65 36.189 452.583 37.9567L453.933 36.4808ZM449.909 30.8423C448.953 28.6519 448.469 26.2349 448.469 23.5781H446.469C446.469 26.4838 447 29.1762 448.076 31.642L449.909 30.8423ZM453.898 23.5781C453.898 25.5888 454.256 27.4328 454.992 29.0928L456.82 28.2822C456.213 26.911 455.898 25.3487 455.898 23.5781H453.898ZM454.996 29.1006C455.739 30.7385 456.765 32.1494 458.075 33.3229L459.41 31.8334C458.313 30.8506 457.449 29.6677 456.817 28.2744L454.996 29.1006ZM458.085 33.3319C459.406 34.4836 460.948 35.3653 462.699 35.9822L463.364 34.0959C461.833 33.5566 460.516 32.7976 459.399 31.8244L458.085 33.3319ZM462.702 35.9832C464.474 36.602 466.384 36.9062 468.422 36.9062V34.9062C466.585 34.9062 464.901 34.6324 463.361 34.0949L462.702 35.9832ZM468.422 36.9062C470.46 36.9062 472.363 36.602 474.121 35.9822L473.457 34.0959C471.934 34.6324 470.259 34.9062 468.422 34.9062V36.9062ZM474.119 35.9832C475.886 35.3664 477.431 34.4836 478.74 33.3277L477.416 31.8286C476.319 32.7976 475.005 33.5555 473.46 34.0949L474.119 35.9832ZM478.745 33.3229C480.055 32.1494 481.082 30.7385 481.825 29.1006L480.003 28.2744C479.371 29.6677 478.508 30.8506 477.411 31.8334L478.745 33.3229ZM481.825 29.1006C482.579 27.4387 482.945 25.5919 482.945 23.5781H480.945C480.945 25.3456 480.625 26.9051 480.003 28.2744L481.825 29.1006ZM482.945 23.5781C482.945 21.5646 482.579 19.724 481.823 18.0755L480.005 18.9088C480.624 20.2603 480.945 21.8104 480.945 23.5781H482.945ZM481.823 18.0755C481.078 16.4496 480.046 15.0654 478.729 13.9361L477.427 15.4546C478.516 16.3877 479.375 17.5348 480.005 18.9088L481.823 18.0755ZM478.735 13.9409C477.422 12.799 475.873 11.9397 474.103 11.3551L473.476 13.2543C475.018 13.7634 476.328 14.4979 477.422 15.4497L478.735 13.9409ZM474.105 11.356C472.351 10.7713 470.454 10.4844 468.422 10.4844V12.4844C470.265 12.4844 471.946 12.7443 473.473 13.2534L474.105 11.356ZM468.422 10.4844C466.39 10.4844 464.486 10.7714 462.718 11.3551L463.345 13.2543C464.889 12.7443 466.579 12.4844 468.422 12.4844V10.4844ZM462.715 11.356C460.961 11.9407 459.415 12.7991 458.091 13.9367L459.394 15.4539C460.507 14.4978 461.82 13.7624 463.347 13.2534L462.715 11.356ZM458.091 13.9361C456.774 15.0654 455.742 16.4496 454.997 18.0755L456.815 18.9088C457.445 17.5348 458.304 16.3877 459.393 15.4546L458.091 13.9361ZM454.994 18.0834C454.256 19.7299 453.898 21.5677 453.898 23.5781H455.898C455.898 21.8073 456.213 20.2544 456.819 18.901L454.994 18.0834ZM497.625 5.36719V4.36719H496.625V5.36719H497.625ZM529.383 8.92969L528.735 9.69143L528.74 9.69574L529.383 8.92969ZM532.406 13.125L531.477 13.4934L531.48 13.5009L532.406 13.125ZM529.406 28.4531L530.073 29.1981L530.074 29.1977L529.406 28.4531ZM524.297 31.2891L524.607 32.2399L524.613 32.2377L524.297 31.2891ZM516.984 32.2969L516.982 33.2969H516.984V32.2969ZM505.055 32.2734L505.057 31.2734L504.055 31.2715V32.2734H505.055ZM505.055 42V43H506.055V42H505.055ZM497.625 42H496.625V43H497.625V42ZM520.805 25.3594L521.104 26.3136L521.112 26.3108L520.805 25.3594ZM523.453 23.9297L524.108 24.6854L524.109 24.6843L523.453 23.9297ZM525.047 21.6797L524.12 21.3055L524.116 21.314L525.047 21.6797ZM523.453 13.6641L522.798 14.4198L522.807 14.4274L523.453 13.6641ZM505.055 11.8359V10.8359H504.055V11.8359H505.055ZM505.055 25.8516H504.055V26.8516H505.055V25.8516ZM497.625 6.36719H516.938V4.36719H497.625V6.36719ZM516.938 6.36719C519.682 6.36719 522.019 6.66494 523.967 7.24027L524.533 5.32223C522.356 4.67881 519.818 4.36719 516.938 4.36719V6.36719ZM523.967 7.24027C525.922 7.81802 527.501 8.64225 528.735 9.69141L530.031 8.16796C528.545 6.90462 526.703 5.96323 524.533 5.32223L523.967 7.24027ZM528.74 9.69574C529.972 10.7292 530.881 11.9908 531.477 13.4934L533.336 12.7566C532.619 10.9467 531.513 9.4114 530.026 8.16364L528.74 9.69574ZM531.48 13.5009C532.096 15.02 532.414 16.7566 532.414 18.7266H534.414C534.414 16.5403 534.06 14.5425 533.333 12.7491L531.48 13.5009ZM532.414 18.7266C532.414 20.5657 532.106 22.2441 531.5 23.7723L533.359 24.509C534.066 22.7247 534.414 20.7936 534.414 18.7266H532.414ZM531.5 23.7723C530.902 25.2808 529.986 26.5906 528.739 27.7086L530.074 29.1977C531.546 27.8782 532.645 26.3129 533.359 24.509L531.5 23.7723ZM528.739 27.7081C527.516 28.8034 525.94 29.6874 523.981 30.3404L524.613 32.2377C526.779 31.5157 528.609 30.5091 530.073 29.1981L528.739 27.7081ZM523.987 30.3382C522.049 30.9695 519.721 31.2969 516.984 31.2969V33.2969C519.873 33.2969 522.419 32.9524 524.607 32.2399L523.987 30.3382ZM516.986 31.2969L505.057 31.2734L505.053 33.2734L516.982 33.2969L516.986 31.2969ZM504.055 32.2734V42H506.055V32.2734H504.055ZM505.055 41H497.625V43H505.055V41ZM498.625 42V5.36719H496.625V42H498.625ZM517.125 26.8516C518.606 26.8516 519.937 26.6792 521.104 26.3136L520.506 24.4051C519.578 24.6958 518.457 24.8516 517.125 24.8516V26.8516ZM521.112 26.3108C522.278 25.9339 523.285 25.3984 524.108 24.6854L522.798 23.174C522.215 23.6798 521.457 24.0974 520.497 24.4079L521.112 26.3108ZM524.109 24.6843C524.948 23.9551 525.574 23.0722 525.978 22.0453L524.116 21.314C523.832 22.0371 523.396 22.6543 522.797 23.1751L524.109 24.6843ZM525.974 22.0539C526.387 21.0306 526.586 19.9173 526.586 18.7266H524.586C524.586 19.6921 524.425 20.5475 524.12 21.3055L525.974 22.0539ZM526.586 18.7266C526.586 16.3148 525.784 14.3262 524.099 12.9007L522.807 14.4274C523.966 15.4081 524.586 16.7946 524.586 18.7266H526.586ZM524.108 12.9084C522.447 11.4686 520.059 10.8359 517.125 10.8359V12.8359C519.816 12.8359 521.647 13.422 522.798 14.4198L524.108 12.9084ZM517.125 10.8359H505.055V12.8359H517.125V10.8359ZM504.055 11.8359V25.8516H506.055V11.8359H504.055ZM505.055 26.8516H517.125V24.8516H505.055V26.8516ZM541.547 5.36719V4.36719H540.547V5.36719H541.547ZM572.742 5.36719H573.742V4.36719H572.742V5.36719ZM572.742 11.8828V12.8828H573.742V11.8828H572.742ZM548.977 11.8828V10.8828H547.977V11.8828H548.977ZM548.977 19.1953H547.977V20.1953H548.977V19.1953ZM570.023 19.1953H571.023V18.1953H570.023V19.1953ZM570.023 25.3125V26.3125H571.023V25.3125H570.023ZM548.977 25.3125V24.3125H547.977V25.3125H548.977ZM548.977 35.5078H547.977V36.5078H548.977V35.5078ZM573.234 35.5078H574.234V34.5078H573.234V35.5078ZM573.234 42V43H574.234V42H573.234ZM541.547 42H540.547V43H541.547V42ZM541.547 6.36719H572.742V4.36719H541.547V6.36719ZM571.742 5.36719V11.8828H573.742V5.36719H571.742ZM572.742 10.8828H548.977V12.8828H572.742V10.8828ZM547.977 11.8828V19.1953H549.977V11.8828H547.977ZM548.977 20.1953H570.023V18.1953H548.977V20.1953ZM569.023 19.1953V25.3125H571.023V19.1953H569.023ZM570.023 24.3125H548.977V26.3125H570.023V24.3125ZM547.977 25.3125V35.5078H549.977V25.3125H547.977ZM548.977 36.5078H573.234V34.5078H548.977V36.5078ZM572.234 35.5078V42H574.234V35.5078H572.234ZM573.234 41H541.547V43H573.234V41ZM542.547 42V5.36719H540.547V42H542.547ZM581.484 5.36719V4.36719H580.484V5.36719H581.484ZM607.43 6.25781L607.153 7.21881L607.16 7.2207L607.43 6.25781ZM615.586 12.8438L614.661 13.2245L614.664 13.2322L615.586 12.8438ZM616.102 22.1484L617.067 22.4084L617.068 22.4053L616.102 22.1484ZM614.578 25.5234L613.746 24.9687L613.74 24.9776L614.578 25.5234ZM612.023 28.2891L612.635 29.0804L612.642 29.0746L612.023 28.2891ZM608.391 30.2812L608.034 29.3471L606.853 29.7982L607.564 30.8436L608.391 30.2812ZM616.359 42V43H618.249L617.186 41.4377L616.359 42ZM607.266 42L606.432 42.5521L606.728 43H607.266V42ZM600.375 31.5938L601.209 31.0417L600.912 30.5938H600.375V31.5938ZM600.164 31.5938L600.162 32.5938H600.164V31.5938ZM588.914 31.5703L588.916 30.5703L587.914 30.5682V31.5703H588.914ZM588.914 42V43H589.914V42H588.914ZM581.484 42H580.484V43H581.484V42ZM603.984 24.6562L603.689 23.7008L603.685 23.702L603.984 24.6562ZM606.633 23.2734L605.996 22.5024L605.988 22.5094L606.633 23.2734ZM608.227 21.1172L607.304 20.7314L607.3 20.7399L608.227 21.1172ZM606.656 13.5234L606.032 14.3043L606.037 14.3085L606.656 13.5234ZM588.914 11.8359V10.8359H587.914V11.8359H588.914ZM588.914 25.1484H587.914V26.1484H588.914V25.1484ZM581.484 6.36719H600.117V4.36719H581.484V6.36719ZM600.117 6.36719C602.863 6.36719 605.203 6.65751 607.153 7.21879L607.706 5.29684C605.531 4.67061 602.996 4.36719 600.117 4.36719V6.36719ZM607.16 7.2207C609.118 7.7697 610.698 8.55837 611.93 9.56381L613.195 8.01431C611.708 6.80101 609.866 5.90217 607.7 5.29492L607.16 7.2207ZM611.93 9.56381C613.163 10.5701 614.069 11.7872 614.661 13.2245L616.511 12.463C615.79 10.7128 614.68 9.22673 613.195 8.01431L611.93 9.56381ZM614.664 13.2322C615.277 14.6844 615.594 16.3538 615.594 18.2578H617.594C617.594 16.1306 617.239 14.1906 616.507 12.4553L614.664 13.2322ZM615.594 18.2578C615.594 19.536 615.44 20.7462 615.135 21.8915L617.068 22.4053C617.42 21.0819 617.594 19.6984 617.594 18.2578H615.594ZM615.136 21.8885C614.836 23.0043 614.372 24.0295 613.746 24.9687L615.41 26.0781C616.159 24.9549 616.711 23.73 617.067 22.4084L615.136 21.8885ZM613.74 24.9776C613.132 25.9116 612.356 26.754 611.405 27.5036L612.642 29.0746C613.753 28.1992 614.681 27.1977 615.416 26.0693L613.74 24.9776ZM611.412 27.4978C610.468 28.227 609.346 28.8459 608.034 29.3471L608.747 31.2154C610.217 30.6541 611.516 29.9448 612.635 29.0803L611.412 27.4978ZM607.564 30.8436L615.532 42.5623L617.186 41.4377L609.218 29.7189L607.564 30.8436ZM616.359 41H607.266V43H616.359V41ZM608.099 41.4479L601.209 31.0417L599.541 32.1458L606.432 42.5521L608.099 41.4479ZM600.375 30.5938H600.164V32.5938H600.375V30.5938ZM600.166 30.5938L588.916 30.5703L588.912 32.5703L600.162 32.5937L600.166 30.5938ZM587.914 31.5703V42H589.914V31.5703H587.914ZM588.914 41H581.484V43H588.914V41ZM582.484 42V5.36719H580.484V42H582.484ZM600.305 26.1484C601.785 26.1484 603.117 25.9761 604.283 25.6105L603.685 23.702C602.758 23.9927 601.637 24.1484 600.305 24.1484V26.1484ZM604.279 25.6117C605.444 25.252 606.453 24.734 607.278 24.0375L605.988 22.5094C605.406 23.0004 604.65 23.4042 603.689 23.7008L604.279 25.6117ZM607.27 24.0444C608.113 23.3479 608.745 22.495 609.153 21.4945L607.3 20.7399C607.021 21.4269 606.59 22.0115 605.996 22.5025L607.27 24.0444ZM609.149 21.503C609.566 20.5072 609.766 19.4208 609.766 18.2578H607.766C607.766 19.1886 607.606 20.0085 607.304 20.7314L609.149 21.503ZM609.766 18.2578C609.766 15.9542 608.959 14.066 607.276 12.7383L606.037 14.3085C607.166 15.1996 607.766 16.4677 607.766 18.2578H609.766ZM607.281 12.7426C605.621 11.4148 603.238 10.8359 600.305 10.8359V12.8359C603.028 12.8359 604.879 13.3821 606.032 14.3043L607.281 12.7426ZM600.305 10.8359H588.914V12.8359H600.305V10.8359ZM587.914 11.8359V25.1484H589.914V11.8359H587.914ZM588.914 26.1484H600.305V24.1484H588.914V26.1484Z" fill="black"/>
</g>
<path d="M157.266 24.3672H165.375L175.312 48.0156L177.609 53.7344L179.414 48.0156L183.07 39.3906L176.484 24.3672H184.125L186.82 31.5156L189.328 24.3672H196.969L190.383 39.3906L194.109 48.2031L196.359 53.7344L198.094 48.1094L208.078 24.3672H216.188L200.016 61H192.656L189.398 53.7344L186.75 46.6797L184.102 53.7344L180.797 61H173.438L157.266 24.3672ZM221.859 24.3672H253.055V30.8828H229.289V38.1953H250.336V44.3125H229.289V54.5078H253.547V61H221.859V24.3672ZM261.797 24.3672H281.367C283.758 24.3672 285.836 24.625 287.602 25.1406C289.383 25.6406 290.859 26.3359 292.031 27.2266C293.203 28.1172 294.07 29.1797 294.633 30.4141C295.211 31.6328 295.5 32.9531 295.5 34.375C295.5 36.7031 294.766 38.7422 293.297 40.4922C294.984 41.4922 296.242 42.7891 297.07 44.3828C297.898 45.9766 298.312 47.7891 298.312 49.8203C298.312 51.5234 298.023 53.0625 297.445 54.4375C296.883 55.8125 296.016 56.9922 294.844 57.9766C293.688 58.9453 292.219 59.6953 290.438 60.2266C288.672 60.7422 286.586 61 284.18 61H261.797V24.3672ZM284.227 38.4297C284.867 38.4297 285.492 38.4531 286.102 38.5C287.148 37.5 287.672 36.3594 287.672 35.0781C287.672 33.75 287.148 32.7266 286.102 32.0078C285.07 31.2734 283.555 30.9062 281.555 30.9062H269.227V38.4297H284.227ZM284.367 54.5312C286.367 54.5312 287.883 54.1016 288.914 53.2422C289.961 52.3828 290.484 51.1719 290.484 49.6094C290.484 48.0469 289.961 46.8281 288.914 45.9531C287.883 45.0781 286.367 44.6406 284.367 44.6406H269.227V54.5312H284.367ZM321.797 24.3672H335.227C339.148 24.3672 342.555 24.7891 345.445 25.6328C348.336 26.4766 350.727 27.6875 352.617 29.2656C354.523 30.8281 355.938 32.7344 356.859 34.9844C357.797 37.2188 358.266 39.7344 358.266 42.5312C358.266 45.1875 357.805 47.6484 356.883 49.9141C355.961 52.1641 354.555 54.1172 352.664 55.7734C350.773 57.4141 348.383 58.7031 345.492 59.6406C342.602 60.5625 339.195 61.0234 335.273 61.0234L321.797 61V24.3672ZM337.055 54.5781C339.273 54.5781 341.219 54.2969 342.891 53.7344C344.562 53.1562 345.953 52.3438 347.062 51.2969C348.188 50.25 349.031 48.9844 349.594 47.5C350.156 46.0156 350.438 44.3594 350.438 42.5312C350.438 40.7344 350.156 39.1172 349.594 37.6797C349.031 36.2266 348.188 35 347.062 34C345.953 32.9844 344.562 32.2031 342.891 31.6562C341.219 31.1094 339.273 30.8359 337.055 30.8359H329.227V54.5781H337.055ZM365.719 24.3672H396.914V30.8828H373.148V38.1953H394.195V44.3125H373.148V54.5078H397.406V61H365.719V24.3672ZM400.758 24.3672H408.984L420.492 52.3047L432 24.3672H440.227L424.172 61H416.812L400.758 24.3672ZM445.734 24.3672H476.93V30.8828H453.164V38.1953H474.211V44.3125H453.164V54.5078H477.422V61H445.734V24.3672ZM485.672 24.3672H493.102V54.4844H514.406V61H485.672V24.3672ZM519.469 42.5781C519.469 39.8125 519.977 37.2812 520.992 34.9844C522.008 32.6875 523.43 30.7188 525.258 29.0781C527.102 27.4219 529.305 26.1406 531.867 25.2344C534.445 24.3281 537.297 23.875 540.422 23.875C543.531 23.875 546.375 24.3281 548.953 25.2344C551.531 26.1406 553.734 27.4219 555.562 29.0781C557.406 30.7188 558.836 32.6875 559.852 34.9844C560.867 37.2812 561.375 39.8125 561.375 42.5781C561.375 45.3594 560.867 47.9141 559.852 50.2422C558.836 52.5547 557.406 54.5469 555.562 56.2188C553.734 57.8906 551.531 59.1953 548.953 60.1328C546.375 61.0547 543.531 61.5156 540.422 61.5156C537.297 61.5156 534.445 61.0547 531.867 60.1328C529.305 59.1953 527.102 57.8906 525.258 56.2188C523.43 54.5469 522.008 52.5547 520.992 50.2422C519.977 47.9141 519.469 45.3594 519.469 42.5781ZM526.898 42.5781C526.898 44.4688 527.234 46.1719 527.906 47.6875C528.594 49.2031 529.539 50.5 530.742 51.5781C531.961 52.6406 533.391 53.4609 535.031 54.0391C536.688 54.6172 538.484 54.9062 540.422 54.9062C542.359 54.9062 544.148 54.6172 545.789 54.0391C547.445 53.4609 548.875 52.6406 550.078 51.5781C551.281 50.5 552.227 49.2031 552.914 47.6875C553.602 46.1719 553.945 44.4688 553.945 42.5781C553.945 40.6875 553.602 38.9922 552.914 37.4922C552.227 35.9922 551.281 34.7266 550.078 33.6953C548.875 32.6484 547.445 31.8516 545.789 31.3047C544.148 30.7578 542.359 30.4844 540.422 30.4844C538.484 30.4844 536.688 30.7578 535.031 31.3047C533.391 31.8516 531.961 32.6484 530.742 33.6953C529.539 34.7266 528.594 35.9922 527.906 37.4922C527.234 38.9922 526.898 40.6875 526.898 42.5781ZM569.625 24.3672H588.938C591.75 24.3672 594.188 24.6719 596.25 25.2812C598.312 25.8906 600.023 26.7734 601.383 27.9297C602.742 29.0703 603.75 30.4688 604.406 32.125C605.078 33.7812 605.414 35.6484 605.414 37.7266C605.414 39.6797 605.086 41.4844 604.43 43.1406C603.773 44.7969 602.766 46.2344 601.406 47.4531C600.062 48.6562 598.359 49.6016 596.297 50.2891C594.234 50.9609 591.797 51.2969 588.984 51.2969L577.055 51.2734V61H569.625V24.3672ZM589.125 44.8516C590.531 44.8516 591.758 44.6875 592.805 44.3594C593.867 44.0156 594.75 43.5391 595.453 42.9297C596.172 42.3047 596.703 41.5547 597.047 40.6797C597.406 39.7891 597.586 38.8047 597.586 37.7266C597.586 35.5547 596.875 33.8672 595.453 32.6641C594.047 31.4453 591.938 30.8359 589.125 30.8359H577.055V44.8516H589.125ZM613.547 24.3672H644.742V30.8828H620.977V38.1953H642.023V44.3125H620.977V54.5078H645.234V61H613.547V24.3672ZM653.484 24.3672H672.117C674.93 24.3672 677.367 24.6641 679.43 25.2578C681.492 25.8359 683.203 26.6797 684.562 27.7891C685.922 28.8984 686.93 30.25 687.586 31.8438C688.258 33.4375 688.594 35.2422 688.594 37.2578C688.594 38.6172 688.43 39.9141 688.102 41.1484C687.773 42.3672 687.266 43.4922 686.578 44.5234C685.906 45.5547 685.055 46.4766 684.023 47.2891C682.992 48.0859 681.781 48.75 680.391 49.2812L688.359 61H679.266L672.375 50.5938H672.164L660.914 50.5703V61H653.484V24.3672ZM672.305 44.1484C673.711 44.1484 674.938 43.9844 675.984 43.6562C677.047 43.3281 677.93 42.8672 678.633 42.2734C679.352 41.6797 679.883 40.9609 680.227 40.1172C680.586 39.2578 680.766 38.3047 680.766 37.2578C680.766 35.2109 680.062 33.6328 678.656 32.5234C677.25 31.3984 675.133 30.8359 672.305 30.8359H660.914V44.1484H672.305Z" fill="white"/>
<path d="M157.266 24.3672V23.3672H155.731L156.351 24.771L157.266 24.3672ZM165.375 24.3672L166.297 23.9798L166.039 23.3672H165.375V24.3672ZM175.312 48.0156L176.24 47.6429L176.237 47.6355L176.234 47.6282L175.312 48.0156ZM177.609 53.7344L176.681 54.1071L177.722 56.699L178.563 54.0353L177.609 53.7344ZM179.414 48.0156L178.493 47.6253L178.475 47.6692L178.46 47.7147L179.414 48.0156ZM183.07 39.3906L183.991 39.7809L184.159 39.384L183.986 38.9891L183.07 39.3906ZM176.484 24.3672V23.3672H174.954L175.569 24.7687L176.484 24.3672ZM184.125 24.3672L185.061 24.0144L184.817 23.3672H184.125V24.3672ZM186.82 31.5156L185.885 31.8684L186.854 34.4399L187.764 31.8467L186.82 31.5156ZM189.328 24.3672V23.3672H188.619L188.385 24.0361L189.328 24.3672ZM196.969 24.3672L197.885 24.7687L198.499 23.3672H196.969V24.3672ZM190.383 39.3906L189.467 38.9891L189.294 39.3835L189.462 39.7801L190.383 39.3906ZM194.109 48.2031L195.036 47.8263L195.03 47.8136L194.109 48.2031ZM196.359 53.7344L195.433 54.1112L196.489 56.7074L197.315 54.029L196.359 53.7344ZM198.094 48.1094L197.172 47.7217L197.153 47.7674L197.138 47.8147L198.094 48.1094ZM208.078 24.3672V23.3672H207.414L207.156 23.9795L208.078 24.3672ZM216.188 24.3672L217.102 24.771L217.722 23.3672H216.188V24.3672ZM200.016 61V62H200.667L200.93 61.4039L200.016 61ZM192.656 61L191.744 61.4091L192.009 62H192.656V61ZM189.398 53.7344L188.462 54.0858L188.473 54.115L188.486 54.1435L189.398 53.7344ZM186.75 46.6797L187.686 46.3282L186.75 43.8344L185.814 46.3282L186.75 46.6797ZM184.102 53.7344L185.012 54.1484L185.026 54.1176L185.038 54.0858L184.102 53.7344ZM180.797 61V62H181.441L181.707 61.414L180.797 61ZM173.438 61L172.523 61.4039L172.786 62H173.438V61ZM157.266 25.3672H165.375V23.3672H157.266V25.3672ZM164.453 24.7546L174.391 48.403L176.234 47.6282L166.297 23.9798L164.453 24.7546ZM174.385 48.3883L176.681 54.1071L178.537 53.3617L176.24 47.6429L174.385 48.3883ZM178.563 54.0353L180.368 48.3166L178.46 47.7147L176.656 53.4334L178.563 54.0353ZM180.335 48.4059L183.991 39.7809L182.15 39.0003L178.493 47.6253L180.335 48.4059ZM183.986 38.9891L177.4 23.9657L175.569 24.7687L182.154 39.7921L183.986 38.9891ZM176.484 25.3672H184.125V23.3672H176.484V25.3672ZM183.189 24.72L185.885 31.8684L187.756 31.1628L185.061 24.0144L183.189 24.72ZM187.764 31.8467L190.272 24.6982L188.385 24.0361L185.877 31.1846L187.764 31.8467ZM189.328 25.3672H196.969V23.3672H189.328V25.3672ZM196.053 23.9657L189.467 38.9891L191.299 39.7921L197.885 24.7687L196.053 23.9657ZM189.462 39.7801L193.188 48.5926L195.03 47.8136L191.304 39.0011L189.462 39.7801ZM193.183 48.5799L195.433 54.1112L197.286 53.3576L195.036 47.8263L193.183 48.5799ZM197.315 54.029L199.049 48.404L197.138 47.8147L195.404 53.4397L197.315 54.029ZM199.016 48.497L209 24.7548L207.156 23.9795L197.172 47.7217L199.016 48.497ZM208.078 25.3672H216.188V23.3672H208.078V25.3672ZM215.273 23.9633L199.101 60.5961L200.93 61.4039L217.102 24.771L215.273 23.9633ZM200.016 60H192.656V62H200.016V60ZM193.569 60.5909L190.311 53.3252L188.486 54.1435L191.744 61.4091L193.569 60.5909ZM190.335 53.3829L187.686 46.3282L185.814 47.0312L188.462 54.0858L190.335 53.3829ZM185.814 46.3282L183.165 53.3829L185.038 54.0858L187.686 47.0312L185.814 46.3282ZM183.191 53.3204L179.887 60.586L181.707 61.414L185.012 54.1484L183.191 53.3204ZM180.797 60H173.438V62H180.797V60ZM174.352 60.5961L158.18 23.9633L156.351 24.771L172.523 61.4039L174.352 60.5961ZM221.859 24.3672V23.3672H220.859V24.3672H221.859ZM253.055 24.3672H254.055V23.3672H253.055V24.3672ZM253.055 30.8828V31.8828H254.055V30.8828H253.055ZM229.289 30.8828V29.8828H228.289V30.8828H229.289ZM229.289 38.1953H228.289V39.1953H229.289V38.1953ZM250.336 38.1953H251.336V37.1953H250.336V38.1953ZM250.336 44.3125V45.3125H251.336V44.3125H250.336ZM229.289 44.3125V43.3125H228.289V44.3125H229.289ZM229.289 54.5078H228.289V55.5078H229.289V54.5078ZM253.547 54.5078H254.547V53.5078H253.547V54.5078ZM253.547 61V62H254.547V61H253.547ZM221.859 61H220.859V62H221.859V61ZM221.859 25.3672H253.055V23.3672H221.859V25.3672ZM252.055 24.3672V30.8828H254.055V24.3672H252.055ZM253.055 29.8828H229.289V31.8828H253.055V29.8828ZM228.289 30.8828V38.1953H230.289V30.8828H228.289ZM229.289 39.1953H250.336V37.1953H229.289V39.1953ZM249.336 38.1953V44.3125H251.336V38.1953H249.336ZM250.336 43.3125H229.289V45.3125H250.336V43.3125ZM228.289 44.3125V54.5078H230.289V44.3125H228.289ZM229.289 55.5078H253.547V53.5078H229.289V55.5078ZM252.547 54.5078V61H254.547V54.5078H252.547ZM253.547 60H221.859V62H253.547V60ZM222.859 61V24.3672H220.859V61H222.859ZM261.797 24.3672V23.3672H260.797V24.3672H261.797ZM287.602 25.1406L287.321 26.1006L287.331 26.1034L287.602 25.1406ZM294.633 30.4141L293.723 30.8287L293.726 30.8357L293.729 30.8426L294.633 30.4141ZM293.297 40.4922L292.531 39.8493L291.773 40.7518L292.787 41.3525L293.297 40.4922ZM297.445 54.4375L296.523 54.0499L296.52 54.0589L297.445 54.4375ZM294.844 57.9766L295.486 58.7431L295.487 58.7423L294.844 57.9766ZM290.438 60.2266L290.718 61.1865L290.723 61.1848L290.438 60.2266ZM261.797 61H260.797V62H261.797V61ZM286.102 38.5L286.025 39.4971L286.47 39.5313L286.792 39.2231L286.102 38.5ZM286.102 32.0078L285.521 32.8224L285.528 32.8274L285.536 32.8322L286.102 32.0078ZM269.227 30.9062V29.9062H268.227V30.9062H269.227ZM269.227 38.4297H268.227V39.4297H269.227V38.4297ZM288.914 53.2422L288.28 52.4692L288.274 52.474L288.914 53.2422ZM288.914 45.9531L288.267 46.7157L288.273 46.7204L288.914 45.9531ZM269.227 44.6406V43.6406H268.227V44.6406H269.227ZM269.227 54.5312H268.227V55.5312H269.227V54.5312ZM261.797 25.3672H281.367V23.3672H261.797V25.3672ZM281.367 25.3672C283.69 25.3672 285.669 25.6181 287.321 26.1005L287.882 24.1807C286.003 23.6319 283.826 23.3672 281.367 23.3672V25.3672ZM287.331 26.1034C289.021 26.5778 290.376 27.225 291.426 28.0227L292.636 26.4304C291.342 25.4469 289.744 24.7034 287.872 24.1778L287.331 26.1034ZM291.426 28.0227C292.478 28.8221 293.235 29.7574 293.723 30.8287L295.543 29.9994C294.906 28.602 293.928 27.4123 292.636 26.4304L291.426 28.0227ZM293.729 30.8426C294.24 31.9202 294.5 33.0932 294.5 34.375H296.5C296.5 32.8131 296.181 31.3454 295.536 29.9855L293.729 30.8426ZM294.5 34.375C294.5 36.4729 293.845 38.2831 292.531 39.8493L294.063 41.1351C295.686 39.2012 296.5 36.9334 296.5 34.375H294.5ZM292.787 41.3525C294.329 42.2664 295.449 43.431 296.183 44.8439L297.958 43.9217C297.036 42.1471 295.639 40.718 293.807 39.6319L292.787 41.3525ZM296.183 44.8439C296.928 46.2775 297.312 47.9283 297.312 49.8203H299.312C299.312 47.6498 298.869 45.6756 297.958 43.9217L296.183 44.8439ZM297.312 49.8203C297.312 51.4091 297.043 52.8138 296.523 54.0499L298.367 54.8251C299.004 53.3112 299.312 51.6378 299.312 49.8203H297.312ZM296.52 54.0589C296.021 55.2792 295.252 56.3275 294.201 57.2109L295.487 58.7423C296.779 57.6569 297.745 56.3458 298.371 54.8161L296.52 54.0589ZM294.202 57.21C293.171 58.0734 291.832 58.7672 290.152 59.2683L290.723 61.1848C292.606 60.6234 294.204 59.8172 295.486 58.7431L294.202 57.21ZM290.157 59.2667C288.506 59.749 286.518 60 284.18 60V62C286.653 62 288.838 61.7354 290.718 61.1865L290.157 59.2667ZM284.18 60H261.797V62H284.18V60ZM262.797 61V24.3672H260.797V61H262.797ZM284.227 39.4297C284.843 39.4297 285.442 39.4522 286.025 39.4971L286.178 37.5029C285.542 37.454 284.892 37.4297 284.227 37.4297V39.4297ZM286.792 39.2231C288.009 38.0614 288.672 36.6692 288.672 35.0781H286.672C286.672 36.0495 286.288 36.9386 285.411 37.7769L286.792 39.2231ZM288.672 35.0781C288.672 33.4385 288.001 32.0986 286.668 31.1834L285.536 32.8322C286.296 33.3545 286.672 34.0615 286.672 35.0781H288.672ZM286.682 31.1932C285.408 30.2866 283.651 29.9062 281.555 29.9062V31.9062C283.458 31.9062 284.732 32.2603 285.521 32.8224L286.682 31.1932ZM281.555 29.9062H269.227V31.9062H281.555V29.9062ZM268.227 30.9062V38.4297H270.227V30.9062H268.227ZM269.227 39.4297H284.227V37.4297H269.227V39.4297ZM284.367 55.5312C286.49 55.5312 288.273 55.0777 289.554 54.0104L288.274 52.474C287.492 53.1254 286.244 53.5312 284.367 53.5312V55.5312ZM289.549 54.0151C290.864 52.9354 291.484 51.4197 291.484 49.6094H289.484C289.484 50.924 289.058 51.8303 288.28 52.4693L289.549 54.0151ZM291.484 49.6094C291.484 47.7987 290.864 46.2797 289.555 45.1858L288.273 46.7204C289.058 47.3766 289.484 48.295 289.484 49.6094H291.484ZM289.561 45.1906C288.28 44.1036 286.494 43.6406 284.367 43.6406V45.6406C286.24 45.6406 287.486 46.0527 288.267 46.7156L289.561 45.1906ZM284.367 43.6406H269.227V45.6406H284.367V43.6406ZM268.227 44.6406V54.5312H270.227V44.6406H268.227ZM269.227 55.5312H284.367V53.5312H269.227V55.5312ZM321.797 24.3672V23.3672H320.797V24.3672H321.797ZM352.617 29.2656L351.976 30.0334L351.983 30.039L352.617 29.2656ZM356.859 34.9844L355.934 35.3635L355.937 35.3713L356.859 34.9844ZM356.883 49.9141L357.808 50.2932L357.809 50.291L356.883 49.9141ZM352.664 55.7734L353.319 56.5287L353.323 56.5256L352.664 55.7734ZM345.492 59.6406L345.796 60.5934L345.801 60.5918L345.492 59.6406ZM335.273 61.0234L335.272 62.0234H335.273V61.0234ZM321.797 61H320.797V61.9983L321.795 62L321.797 61ZM342.891 53.7344L343.21 54.6822L343.217 54.6795L342.891 53.7344ZM347.062 51.2969L346.381 50.5648L346.376 50.5696L347.062 51.2969ZM349.594 37.6797L348.661 38.0407L348.663 38.0441L349.594 37.6797ZM347.062 34L346.387 34.7376L346.393 34.7425L346.398 34.7474L347.062 34ZM329.227 30.8359V29.8359H328.227V30.8359H329.227ZM329.227 54.5781H328.227V55.5781H329.227V54.5781ZM321.797 25.3672H335.227V23.3672H321.797V25.3672ZM335.227 25.3672C339.081 25.3672 342.388 25.7822 345.165 26.5928L345.726 24.6729C342.721 23.7959 339.216 23.3672 335.227 23.3672V25.3672ZM345.165 26.5928C347.952 27.4063 350.212 28.5608 351.976 30.0333L353.258 28.4979C351.241 26.8142 348.72 25.5468 345.726 24.6729L345.165 26.5928ZM351.983 30.039C353.763 31.4978 355.076 33.2693 355.934 35.3635L357.785 34.6052C356.799 32.1995 355.284 30.1584 353.251 28.4922L351.983 30.039ZM355.937 35.3713C356.816 37.4657 357.266 39.8469 357.266 42.5312H359.266C359.266 39.6218 358.778 36.9718 357.781 34.5975L355.937 35.3713ZM357.266 42.5312C357.266 45.0695 356.826 47.4012 355.957 49.5372L357.809 50.291C358.784 47.8957 359.266 45.3055 359.266 42.5312H357.266ZM355.957 49.5349C355.096 51.6367 353.783 53.4635 352.005 55.0212L353.323 56.5256C355.326 54.7709 356.826 52.6914 357.808 50.2932L355.957 49.5349ZM352.009 55.0182C350.239 56.5542 347.973 57.7846 345.184 58.6894L345.801 60.5918C348.792 59.6216 351.308 58.2739 353.319 56.5287L352.009 55.0182ZM345.188 58.6879C342.42 59.5708 339.121 60.0234 335.273 60.0234V62.0234C339.27 62.0234 342.783 61.5542 345.796 60.5933L345.188 58.6879ZM335.275 60.0234L321.799 60L321.795 62L335.272 62.0234L335.275 60.0234ZM322.797 61V24.3672H320.797V61H322.797ZM337.055 55.5781C339.355 55.5781 341.412 55.2868 343.21 54.6822L342.572 52.7866C341.025 53.3069 339.192 53.5781 337.055 53.5781V55.5781ZM343.217 54.6795C345.002 54.0624 346.521 53.1826 347.749 52.0242L346.376 50.5696C345.385 51.5049 344.123 52.2501 342.564 52.7893L343.217 54.6795ZM347.744 52.0289C348.985 50.8738 349.914 49.4776 350.529 47.8544L348.659 47.1456C348.149 48.4912 347.39 49.6262 346.381 50.5648L347.744 52.0289ZM350.529 47.8544C351.14 46.241 351.438 44.4623 351.438 42.5312H349.438C349.438 44.2564 349.172 45.7903 348.659 47.1456L350.529 47.8544ZM351.438 42.5312C351.438 40.6298 351.14 38.8863 350.525 37.3153L348.663 38.0441C349.173 39.3481 349.438 40.8389 349.438 42.5312H351.438ZM350.526 37.3187C349.909 35.7227 348.975 34.362 347.727 33.2526L346.398 34.7474C347.4 35.638 348.154 36.7305 348.661 38.0407L350.526 37.3187ZM347.738 33.2624C346.507 32.1358 344.986 31.2895 343.202 30.7058L342.58 32.6067C344.139 33.1168 345.399 33.8329 346.387 34.7376L347.738 33.2624ZM343.202 30.7058C341.407 30.1188 339.353 29.8359 337.055 29.8359V31.8359C339.194 31.8359 341.03 32.0999 342.58 32.6067L343.202 30.7058ZM337.055 29.8359H329.227V31.8359H337.055V29.8359ZM328.227 30.8359V54.5781H330.227V30.8359H328.227ZM329.227 55.5781H337.055V53.5781H329.227V55.5781ZM365.719 24.3672V23.3672H364.719V24.3672H365.719ZM396.914 24.3672H397.914V23.3672H396.914V24.3672ZM396.914 30.8828V31.8828H397.914V30.8828H396.914ZM373.148 30.8828V29.8828H372.148V30.8828H373.148ZM373.148 38.1953H372.148V39.1953H373.148V38.1953ZM394.195 38.1953H395.195V37.1953H394.195V38.1953ZM394.195 44.3125V45.3125H395.195V44.3125H394.195ZM373.148 44.3125V43.3125H372.148V44.3125H373.148ZM373.148 54.5078H372.148V55.5078H373.148V54.5078ZM397.406 54.5078H398.406V53.5078H397.406V54.5078ZM397.406 61V62H398.406V61H397.406ZM365.719 61H364.719V62H365.719V61ZM365.719 25.3672H396.914V23.3672H365.719V25.3672ZM395.914 24.3672V30.8828H397.914V24.3672H395.914ZM396.914 29.8828H373.148V31.8828H396.914V29.8828ZM372.148 30.8828V38.1953H374.148V30.8828H372.148ZM373.148 39.1953H394.195V37.1953H373.148V39.1953ZM393.195 38.1953V44.3125H395.195V38.1953H393.195ZM394.195 43.3125H373.148V45.3125H394.195V43.3125ZM372.148 44.3125V54.5078H374.148V44.3125H372.148ZM373.148 55.5078H397.406V53.5078H373.148V55.5078ZM396.406 54.5078V61H398.406V54.5078H396.406ZM397.406 60H365.719V62H397.406V60ZM366.719 61V24.3672H364.719V61H366.719ZM400.758 24.3672V23.3672H399.228L399.842 24.7686L400.758 24.3672ZM408.984 24.3672L409.909 23.9863L409.654 23.3672H408.984V24.3672ZM420.492 52.3047L419.568 52.6856L420.492 54.9303L421.417 52.6856L420.492 52.3047ZM432 24.3672V23.3672H431.33L431.075 23.9863L432 24.3672ZM440.227 24.3672L441.142 24.7686L441.757 23.3672H440.227V24.3672ZM424.172 61V62H424.825L425.088 61.4014L424.172 61ZM416.812 61L415.897 61.4014L416.159 62H416.812V61ZM400.758 25.3672H408.984V23.3672H400.758V25.3672ZM408.06 24.7481L419.568 52.6856L421.417 51.9238L409.909 23.9863L408.06 24.7481ZM421.417 52.6856L432.925 24.7481L431.075 23.9863L419.568 51.9238L421.417 52.6856ZM432 25.3672H440.227V23.3672H432V25.3672ZM439.311 23.9658L423.256 60.5986L425.088 61.4014L441.142 24.7686L439.311 23.9658ZM424.172 60H416.812V62H424.172V60ZM417.728 60.5986L401.674 23.9658L399.842 24.7686L415.897 61.4014L417.728 60.5986ZM445.734 24.3672V23.3672H444.734V24.3672H445.734ZM476.93 24.3672H477.93V23.3672H476.93V24.3672ZM476.93 30.8828V31.8828H477.93V30.8828H476.93ZM453.164 30.8828V29.8828H452.164V30.8828H453.164ZM453.164 38.1953H452.164V39.1953H453.164V38.1953ZM474.211 38.1953H475.211V37.1953H474.211V38.1953ZM474.211 44.3125V45.3125H475.211V44.3125H474.211ZM453.164 44.3125V43.3125H452.164V44.3125H453.164ZM453.164 54.5078H452.164V55.5078H453.164V54.5078ZM477.422 54.5078H478.422V53.5078H477.422V54.5078ZM477.422 61V62H478.422V61H477.422ZM445.734 61H444.734V62H445.734V61ZM445.734 25.3672H476.93V23.3672H445.734V25.3672ZM475.93 24.3672V30.8828H477.93V24.3672H475.93ZM476.93 29.8828H453.164V31.8828H476.93V29.8828ZM452.164 30.8828V38.1953H454.164V30.8828H452.164ZM453.164 39.1953H474.211V37.1953H453.164V39.1953ZM473.211 38.1953V44.3125H475.211V38.1953H473.211ZM474.211 43.3125H453.164V45.3125H474.211V43.3125ZM452.164 44.3125V54.5078H454.164V44.3125H452.164ZM453.164 55.5078H477.422V53.5078H453.164V55.5078ZM476.422 54.5078V61H478.422V54.5078H476.422ZM477.422 60H445.734V62H477.422V60ZM446.734 61V24.3672H444.734V61H446.734ZM485.672 24.3672V23.3672H484.672V24.3672H485.672ZM493.102 24.3672H494.102V23.3672H493.102V24.3672ZM493.102 54.4844H492.102V55.4844H493.102V54.4844ZM514.406 54.4844H515.406V53.4844H514.406V54.4844ZM514.406 61V62H515.406V61H514.406ZM485.672 61H484.672V62H485.672V61ZM485.672 25.3672H493.102V23.3672H485.672V25.3672ZM492.102 24.3672V54.4844H494.102V24.3672H492.102ZM493.102 55.4844H514.406V53.4844H493.102V55.4844ZM513.406 54.4844V61H515.406V54.4844H513.406ZM514.406 60H485.672V62H514.406V60ZM486.672 61V24.3672H484.672V61H486.672ZM525.258 29.0781L525.926 29.8224L525.926 29.822L525.258 29.0781ZM531.867 25.2344L531.536 24.291L531.534 24.2916L531.867 25.2344ZM555.562 29.0781L554.891 29.8192L554.898 29.8252L555.562 29.0781ZM559.852 50.2422L560.767 50.6443L560.768 50.642L559.852 50.2422ZM555.562 56.2188L554.891 55.478L554.888 55.4808L555.562 56.2188ZM548.953 60.1328L549.29 61.0744L549.295 61.0726L548.953 60.1328ZM531.867 60.1328L531.524 61.072L531.531 61.0744L531.867 60.1328ZM525.258 56.2188L524.583 56.9567L524.586 56.9595L525.258 56.2188ZM520.992 50.2422L520.076 50.642L520.077 50.6443L520.992 50.2422ZM527.906 47.6875L526.992 48.0928L526.996 48.1006L527.906 47.6875ZM530.742 51.5781L530.075 52.3229L530.085 52.3319L530.742 51.5781ZM535.031 54.0391L534.699 54.9822L534.702 54.9832L535.031 54.0391ZM545.789 54.0391L545.46 53.0949L545.457 53.0959L545.789 54.0391ZM550.078 51.5781L550.74 52.3277L550.745 52.3229L550.078 51.5781ZM550.078 33.6953L549.422 34.4497L549.427 34.4546L550.078 33.6953ZM545.789 31.3047L545.473 32.2534L545.476 32.2543L545.789 31.3047ZM535.031 31.3047L534.718 30.3551L534.715 30.356L535.031 31.3047ZM530.742 33.6953L531.393 34.4546L531.394 34.4539L530.742 33.6953ZM527.906 37.4922L526.997 37.0755L526.994 37.0834L527.906 37.4922ZM520.469 42.5781C520.469 39.9376 520.953 37.5459 521.907 35.3888L520.078 34.58C519 37.0166 518.469 39.6874 518.469 42.5781H520.469ZM521.907 35.3888C522.866 33.2184 524.205 31.3663 525.926 29.8224L524.59 28.3339C522.654 30.0712 521.149 32.1566 520.078 34.58L521.907 35.3888ZM525.926 29.822C527.663 28.2615 529.75 27.0439 532.201 26.1772L531.534 24.2916C528.86 25.2373 526.54 26.5822 524.59 28.3342L525.926 29.822ZM532.199 26.1778C534.656 25.3139 537.394 24.875 540.422 24.875V22.875C537.2 22.875 534.234 23.3423 531.536 24.291L532.199 26.1778ZM540.422 24.875C543.434 24.875 546.164 25.3138 548.622 26.1778L549.285 24.291C546.586 23.3425 543.629 22.875 540.422 22.875V24.875ZM548.622 26.1778C551.088 27.0447 553.172 28.2615 554.891 29.8192L556.234 28.337C554.297 26.5822 551.975 25.2366 549.285 24.291L548.622 26.1778ZM554.898 29.8252C556.633 31.3691 557.978 33.2203 558.937 35.3888L560.766 34.58C559.694 32.1547 558.18 30.0684 556.227 28.3311L554.898 29.8252ZM558.937 35.3888C559.891 37.5459 560.375 39.9376 560.375 42.5781H562.375C562.375 39.6874 561.844 37.0166 560.766 34.58L558.937 35.3888ZM560.375 42.5781C560.375 45.2349 559.891 47.6519 558.935 49.8423L560.768 50.642C561.844 48.1762 562.375 45.4838 562.375 42.5781H560.375ZM558.936 49.8401C557.976 52.0257 556.629 53.902 554.891 55.478L556.234 56.9595C558.184 55.1918 559.696 53.0836 560.767 50.6443L558.936 49.8401ZM554.888 55.4808C553.166 57.0552 551.08 58.2955 548.611 59.193L549.295 61.0726C551.983 60.0951 554.303 58.7261 556.237 56.9567L554.888 55.4808ZM548.616 59.1912C546.16 60.0696 543.432 60.5156 540.422 60.5156V62.5156C543.631 62.5156 546.59 62.0398 549.29 61.0744L548.616 59.1912ZM540.422 60.5156C537.396 60.5156 534.66 60.0694 532.204 59.1912L531.531 61.0744C534.231 62.04 537.198 62.5156 540.422 62.5156V60.5156ZM532.211 59.1937C529.758 58.2962 527.669 57.0552 525.93 55.478L524.586 56.9595C526.534 58.7261 528.852 60.0944 531.524 61.0719L532.211 59.1937ZM525.933 55.4808C524.209 53.9048 522.869 52.0277 521.908 49.8401L520.077 50.6443C521.147 53.0817 522.65 55.189 524.583 56.9567L525.933 55.4808ZM521.909 49.8423C520.953 47.6519 520.469 45.2349 520.469 42.5781H518.469C518.469 45.4838 519 48.1762 520.076 50.642L521.909 49.8423ZM525.898 42.5781C525.898 44.5888 526.256 46.4328 526.992 48.0928L528.82 47.2822C528.213 45.911 527.898 44.3487 527.898 42.5781H525.898ZM526.996 48.1006C527.739 49.7385 528.765 51.1494 530.075 52.3229L531.41 50.8334C530.313 49.8506 529.449 48.6677 528.817 47.2744L526.996 48.1006ZM530.085 52.3319C531.406 53.4836 532.948 54.3653 534.699 54.9822L535.364 53.0959C533.833 52.5566 532.516 51.7976 531.399 50.8244L530.085 52.3319ZM534.702 54.9832C536.474 55.602 538.384 55.9062 540.422 55.9062V53.9062C538.585 53.9062 536.901 53.6324 535.361 53.0949L534.702 54.9832ZM540.422 55.9062C542.46 55.9062 544.363 55.602 546.121 54.9822L545.457 53.0959C543.934 53.6324 542.259 53.9062 540.422 53.9062V55.9062ZM546.119 54.9832C547.886 54.3664 549.431 53.4836 550.74 52.3277L549.416 50.8286C548.319 51.7976 547.005 52.5555 545.46 53.0949L546.119 54.9832ZM550.745 52.3229C552.055 51.1494 553.082 49.7385 553.825 48.1006L552.003 47.2744C551.371 48.6677 550.508 49.8506 549.411 50.8334L550.745 52.3229ZM553.825 48.1006C554.579 46.4387 554.945 44.5919 554.945 42.5781H552.945C552.945 44.3456 552.625 45.9051 552.003 47.2744L553.825 48.1006ZM554.945 42.5781C554.945 40.5646 554.579 38.724 553.823 37.0755L552.005 37.9088C552.624 39.2603 552.945 40.8104 552.945 42.5781H554.945ZM553.823 37.0755C553.078 35.4496 552.046 34.0654 550.729 32.9361L549.427 34.4546C550.516 35.3877 551.375 36.5348 552.005 37.9088L553.823 37.0755ZM550.735 32.9409C549.422 31.799 547.873 30.9397 546.103 30.3551L545.476 32.2543C547.018 32.7634 548.328 33.4979 549.422 34.4497L550.735 32.9409ZM546.105 30.356C544.351 29.7713 542.454 29.4844 540.422 29.4844V31.4844C542.265 31.4844 543.946 31.7443 545.473 32.2534L546.105 30.356ZM540.422 29.4844C538.39 29.4844 536.486 29.7714 534.718 30.3551L535.345 32.2543C536.889 31.7443 538.579 31.4844 540.422 31.4844V29.4844ZM534.715 30.356C532.961 30.9407 531.415 31.7991 530.091 32.9367L531.394 34.4539C532.507 33.4978 533.82 32.7624 535.347 32.2534L534.715 30.356ZM530.091 32.9361C528.774 34.0654 527.742 35.4496 526.997 37.0755L528.815 37.9088C529.445 36.5348 530.304 35.3877 531.393 34.4546L530.091 32.9361ZM526.994 37.0834C526.256 38.7299 525.898 40.5677 525.898 42.5781H527.898C527.898 40.8073 528.213 39.2544 528.819 37.901L526.994 37.0834ZM569.625 24.3672V23.3672H568.625V24.3672H569.625ZM601.383 27.9297L600.735 28.6914L600.74 28.6957L601.383 27.9297ZM604.406 32.125L603.477 32.4934L603.48 32.5009L604.406 32.125ZM601.406 47.4531L602.073 48.1981L602.074 48.1977L601.406 47.4531ZM596.297 50.2891L596.607 51.2399L596.613 51.2377L596.297 50.2891ZM588.984 51.2969L588.982 52.2969H588.984V51.2969ZM577.055 51.2734L577.057 50.2734L576.055 50.2715V51.2734H577.055ZM577.055 61V62H578.055V61H577.055ZM569.625 61H568.625V62H569.625V61ZM592.805 44.3594L593.104 45.3136L593.112 45.3108L592.805 44.3594ZM595.453 42.9297L596.108 43.6854L596.109 43.6843L595.453 42.9297ZM597.047 40.6797L596.12 40.3055L596.116 40.314L597.047 40.6797ZM595.453 32.6641L594.798 33.4198L594.807 33.4274L595.453 32.6641ZM577.055 30.8359V29.8359H576.055V30.8359H577.055ZM577.055 44.8516H576.055V45.8516H577.055V44.8516ZM569.625 25.3672H588.938V23.3672H569.625V25.3672ZM588.938 25.3672C591.682 25.3672 594.019 25.6649 595.967 26.2403L596.533 24.3222C594.356 23.6788 591.818 23.3672 588.938 23.3672V25.3672ZM595.967 26.2403C597.922 26.818 599.501 27.6423 600.735 28.6914L602.031 27.168C600.545 25.9046 598.703 24.9632 596.533 24.3222L595.967 26.2403ZM600.74 28.6957C601.972 29.7292 602.881 30.9908 603.477 32.4934L605.336 31.7566C604.619 29.9467 603.513 28.4114 602.026 27.1636L600.74 28.6957ZM603.48 32.5009C604.096 34.02 604.414 35.7566 604.414 37.7266H606.414C606.414 35.5403 606.06 33.5425 605.333 31.7491L603.48 32.5009ZM604.414 37.7266C604.414 39.5657 604.106 41.2441 603.5 42.7723L605.359 43.509C606.066 41.7247 606.414 39.7936 606.414 37.7266H604.414ZM603.5 42.7723C602.902 44.2808 601.986 45.5906 600.739 46.7086L602.074 48.1977C603.546 46.8782 604.645 45.3129 605.359 43.509L603.5 42.7723ZM600.739 46.7081C599.516 47.8034 597.94 48.6874 595.981 49.3404L596.613 51.2377C598.779 50.5157 600.609 49.5091 602.073 48.1981L600.739 46.7081ZM595.987 49.3382C594.049 49.9695 591.721 50.2969 588.984 50.2969V52.2969C591.873 52.2969 594.419 51.9524 596.607 51.2399L595.987 49.3382ZM588.986 50.2969L577.057 50.2734L577.053 52.2734L588.982 52.2969L588.986 50.2969ZM576.055 51.2734V61H578.055V51.2734H576.055ZM577.055 60H569.625V62H577.055V60ZM570.625 61V24.3672H568.625V61H570.625ZM589.125 45.8516C590.606 45.8516 591.937 45.6792 593.104 45.3136L592.506 43.4051C591.578 43.6958 590.457 43.8516 589.125 43.8516V45.8516ZM593.112 45.3108C594.278 44.9339 595.285 44.3984 596.108 43.6854L594.798 42.174C594.215 42.6798 593.457 43.0974 592.497 43.4079L593.112 45.3108ZM596.109 43.6843C596.948 42.9551 597.574 42.0722 597.978 41.0453L596.116 40.314C595.832 41.0371 595.396 41.6543 594.797 42.1751L596.109 43.6843ZM597.974 41.0539C598.387 40.0306 598.586 38.9173 598.586 37.7266H596.586C596.586 38.6921 596.425 39.5475 596.12 40.3055L597.974 41.0539ZM598.586 37.7266C598.586 35.3148 597.784 33.3262 596.099 31.9007L594.807 33.4274C595.966 34.4081 596.586 35.7946 596.586 37.7266H598.586ZM596.108 31.9084C594.447 30.4686 592.059 29.8359 589.125 29.8359V31.8359C591.816 31.8359 593.647 32.422 594.798 33.4198L596.108 31.9084ZM589.125 29.8359H577.055V31.8359H589.125V29.8359ZM576.055 30.8359V44.8516H578.055V30.8359H576.055ZM577.055 45.8516H589.125V43.8516H577.055V45.8516ZM613.547 24.3672V23.3672H612.547V24.3672H613.547ZM644.742 24.3672H645.742V23.3672H644.742V24.3672ZM644.742 30.8828V31.8828H645.742V30.8828H644.742ZM620.977 30.8828V29.8828H619.977V30.8828H620.977ZM620.977 38.1953H619.977V39.1953H620.977V38.1953ZM642.023 38.1953H643.023V37.1953H642.023V38.1953ZM642.023 44.3125V45.3125H643.023V44.3125H642.023ZM620.977 44.3125V43.3125H619.977V44.3125H620.977ZM620.977 54.5078H619.977V55.5078H620.977V54.5078ZM645.234 54.5078H646.234V53.5078H645.234V54.5078ZM645.234 61V62H646.234V61H645.234ZM613.547 61H612.547V62H613.547V61ZM613.547 25.3672H644.742V23.3672H613.547V25.3672ZM643.742 24.3672V30.8828H645.742V24.3672H643.742ZM644.742 29.8828H620.977V31.8828H644.742V29.8828ZM619.977 30.8828V38.1953H621.977V30.8828H619.977ZM620.977 39.1953H642.023V37.1953H620.977V39.1953ZM641.023 38.1953V44.3125H643.023V38.1953H641.023ZM642.023 43.3125H620.977V45.3125H642.023V43.3125ZM619.977 44.3125V54.5078H621.977V44.3125H619.977ZM620.977 55.5078H645.234V53.5078H620.977V55.5078ZM644.234 54.5078V61H646.234V54.5078H644.234ZM645.234 60H613.547V62H645.234V60ZM614.547 61V24.3672H612.547V61H614.547ZM653.484 24.3672V23.3672H652.484V24.3672H653.484ZM679.43 25.2578L679.153 26.2188L679.16 26.2207L679.43 25.2578ZM687.586 31.8438L686.661 32.2245L686.664 32.2322L687.586 31.8438ZM688.102 41.1484L689.067 41.4084L689.068 41.4053L688.102 41.1484ZM686.578 44.5234L685.746 43.9687L685.74 43.9776L686.578 44.5234ZM684.023 47.2891L684.635 48.0804L684.642 48.0746L684.023 47.2891ZM680.391 49.2812L680.034 48.3471L678.853 48.7982L679.564 49.8436L680.391 49.2812ZM688.359 61V62H690.249L689.186 60.4377L688.359 61ZM679.266 61L678.432 61.5521L678.728 62H679.266V61ZM672.375 50.5938L673.209 50.0417L672.912 49.5938H672.375V50.5938ZM672.164 50.5938L672.162 51.5938H672.164V50.5938ZM660.914 50.5703L660.916 49.5703L659.914 49.5682V50.5703H660.914ZM660.914 61V62H661.914V61H660.914ZM653.484 61H652.484V62H653.484V61ZM675.984 43.6562L675.689 42.7008L675.685 42.702L675.984 43.6562ZM678.633 42.2734L677.996 41.5024L677.988 41.5094L678.633 42.2734ZM680.227 40.1172L679.304 39.7314L679.3 39.7399L680.227 40.1172ZM678.656 32.5234L678.032 33.3043L678.037 33.3085L678.656 32.5234ZM660.914 30.8359V29.8359H659.914V30.8359H660.914ZM660.914 44.1484H659.914V45.1484H660.914V44.1484ZM653.484 25.3672H672.117V23.3672H653.484V25.3672ZM672.117 25.3672C674.863 25.3672 677.203 25.6575 679.153 26.2188L679.706 24.2968C677.531 23.6706 674.996 23.3672 672.117 23.3672V25.3672ZM679.16 26.2207C681.118 26.7697 682.698 27.5584 683.93 28.5638L685.195 27.0143C683.708 25.801 681.866 24.9022 679.7 24.2949L679.16 26.2207ZM683.93 28.5638C685.163 29.5701 686.069 30.7872 686.661 32.2245L688.511 31.463C687.79 29.7128 686.68 28.2267 685.195 27.0143L683.93 28.5638ZM686.664 32.2322C687.277 33.6844 687.594 35.3538 687.594 37.2578H689.594C689.594 35.1306 689.239 33.1906 688.507 31.4553L686.664 32.2322ZM687.594 37.2578C687.594 38.536 687.44 39.7462 687.135 40.8915L689.068 41.4053C689.42 40.0819 689.594 38.6984 689.594 37.2578H687.594ZM687.136 40.8885C686.836 42.0043 686.372 43.0295 685.746 43.9687L687.41 45.0781C688.159 43.9549 688.711 42.73 689.067 41.4084L687.136 40.8885ZM685.74 43.9776C685.132 44.9116 684.356 45.754 683.405 46.5036L684.642 48.0746C685.753 47.1992 686.681 46.1977 687.416 45.0693L685.74 43.9776ZM683.412 46.4978C682.468 47.227 681.346 47.8459 680.034 48.3471L680.747 50.2154C682.217 49.6541 683.516 48.9448 684.635 48.0803L683.412 46.4978ZM679.564 49.8436L687.532 61.5623L689.186 60.4377L681.218 48.7189L679.564 49.8436ZM688.359 60H679.266V62H688.359V60ZM680.099 60.4479L673.209 50.0417L671.541 51.1458L678.432 61.5521L680.099 60.4479ZM672.375 49.5938H672.164V51.5938H672.375V49.5938ZM672.166 49.5938L660.916 49.5703L660.912 51.5703L672.162 51.5937L672.166 49.5938ZM659.914 50.5703V61H661.914V50.5703H659.914ZM660.914 60H653.484V62H660.914V60ZM654.484 61V24.3672H652.484V61H654.484ZM672.305 45.1484C673.785 45.1484 675.117 44.9761 676.283 44.6105L675.685 42.702C674.758 42.9927 673.637 43.1484 672.305 43.1484V45.1484ZM676.279 44.6117C677.444 44.252 678.453 43.734 679.278 43.0375L677.988 41.5094C677.406 42.0004 676.65 42.4042 675.689 42.7008L676.279 44.6117ZM679.27 43.0444C680.113 42.3479 680.745 41.495 681.153 40.4945L679.3 39.7399C679.021 40.4269 678.59 41.0115 677.996 41.5025L679.27 43.0444ZM681.149 40.503C681.566 39.5072 681.766 38.4208 681.766 37.2578H679.766C679.766 38.1886 679.606 39.0085 679.304 39.7314L681.149 40.503ZM681.766 37.2578C681.766 34.9542 680.959 33.066 679.276 31.7383L678.037 33.3085C679.166 34.1996 679.766 35.4677 679.766 37.2578H681.766ZM679.281 31.7426C677.621 30.4148 675.238 29.8359 672.305 29.8359V31.8359C675.028 31.8359 676.879 32.3821 678.032 33.3043L679.281 31.7426ZM672.305 29.8359H660.914V31.8359H672.305V29.8359ZM659.914 30.8359V44.1484H661.914V30.8359H659.914ZM660.914 45.1484H672.305V43.1484H660.914V45.1484Z" fill="black"/>
</g>
<defs>
<filter id="filter0_d_130_668" x="81.2656" y="4.875" width="611.328" height="64.6406" filterUnits="userSpaceOnUse" color-interpolation-filters="sRGB">
<feFlood flood-opacity="0" result="BackgroundImageFix"/>
<feColorMatrix in="SourceAlpha" type="matrix" values="0 0 0 0 0 0 0 0 0 0 0 0 0 0 0 0 0 0 127 0" result="hardAlpha"/>
<feOffset dy="4"/>
<feGaussianBlur stdDeviation="2"/>
<feComposite in2="hardAlpha" operator="out"/>
<feColorMatrix type="matrix" values="0 0 0 0 0 0 0 0 0 0 0 0 0 0 0 0 0 0 0.25 0"/>
<feBlend mode="normal" in2="BackgroundImageFix" result="effect1_dropShadow_130_668"/>
<feBlend mode="normal" in="SourceGraphic" in2="effect1_dropShadow_130_668" result="shape"/>
</filter>
<filter id="filter1_d_130_668" x="81.2656" y="4.875" width="539.328" height="45.6406" filterUnits="userSpaceOnUse" color-interpolation-filters="sRGB">
<feFlood flood-opacity="0" result="BackgroundImageFix"/>
<feColorMatrix in="SourceAlpha" type="matrix" values="0 0 0 0 0 0 0 0 0 0 0 0 0 0 0 0 0 0 127 0" result="hardAlpha"/>
<feOffset dy="4"/>
<feGaussianBlur stdDeviation="2"/>
<feComposite in2="hardAlpha" operator="out"/>
<feColorMatrix type="matrix" values="0 0 0 0 0 0 0 0 0 0 0 0 0 0 0 0 0 0 0.25 0"/>
<feBlend mode="normal" in2="BackgroundImageFix" result="effect1_dropShadow_130_668"/>
<feBlend mode="normal" in="SourceGraphic" in2="effect1_dropShadow_130_668" result="shape"/>
</filter>
</defs>
</svg>
