<svg width="143" height="133" viewBox="0 0 143 133" fill="none" xmlns="http://www.w3.org/2000/svg">
<g clip-path="url(#clip0_147_717)">
<path d="M109.484 0H33.5156C15.0055 0 0 13.9561 0 31.1719V101.828C0 119.044 15.0055 133 33.5156 133H109.484C127.995 133 143 119.044 143 101.828V31.1719C143 13.9561 127.995 0 109.484 0Z" fill="#9B7A67"/>
<path d="M33.7636 106.204L25.4778 18H116.522L108.225 106.19L70.9447 116L33.7636 106.204Z" fill="#E44F26"/>
<path d="M71 108.503L101.127 100.575L108.214 25.2134H71V108.503Z" fill="#F1662A"/>
<path d="M71 57.9246H55.9181L54.8783 46.8471H71V36.0286H42.4219L42.6948 38.9336L45.4936 68.7431H71V57.9246ZM71 86.0191L70.9484 86.0331L58.256 82.7816L57.4448 74.1541H46.0024L47.5991 91.1361L70.9484 97.2891L71 97.2751V86.0191Z" fill="#EBEBEB"/>
<path d="M70.9594 57.9246V68.7431H84.9941L83.6739 82.7746L70.9594 86.0296V97.2856L94.3271 91.1361L94.4968 89.3091L97.1739 60.8296L97.4541 57.9246H70.9594ZM70.9594 36.0286V46.8471H98.4903L98.7189 44.4181L99.2389 38.9336L99.5118 36.0286H70.9594Z" fill="white"/>
</g>
<defs>
<clipPath id="clip0_147_717">
<rect width="143" height="133" fill="white"/>
</clipPath>
</defs>
</svg>
