<svg width="143" height="133" viewBox="0 0 143 133" fill="none" xmlns="http://www.w3.org/2000/svg">
<g clip-path="url(#clip0_147_723)">
<path d="M109.484 0H33.5156C15.0055 0 0 13.9561 0 31.1719V101.828C0 119.044 15.0055 133 33.5156 133H109.484C127.995 133 143 119.044 143 101.828V31.1719C143 13.9561 127.995 0 109.484 0Z" fill="#9B7A67"/>
<path fill-rule="evenodd" clip-rule="evenodd" d="M119.668 41.4635C119.704 41.5898 119.723 41.7202 119.723 41.8516V62.2167C119.723 62.4781 119.649 62.7347 119.511 62.9607C119.373 63.1863 119.173 63.3739 118.932 63.5046L100.808 73.3456V92.8514C100.808 93.1113 100.736 93.3669 100.598 93.5929C100.46 93.8189 100.261 94.0074 100.02 94.1398L62.188 114.68C62.1014 114.726 62.007 114.755 61.9126 114.787C61.8769 114.798 61.8439 114.819 61.8065 114.828C61.542 114.894 61.2638 114.894 60.9993 114.828C60.9563 114.817 60.9167 114.794 60.8753 114.78C60.7887 114.75 60.6983 114.724 60.6156 114.68L22.791 94.1398C22.5501 94.0089 22.3505 93.8213 22.2123 93.5959C22.0732 93.3691 22 93.1125 22 92.8514V31.7561C22 31.6221 22.0196 31.4922 22.0553 31.3664C22.0665 31.3233 22.0944 31.2844 22.11 31.2418C22.1396 31.1638 22.167 31.0843 22.2106 31.0116C22.2402 30.9633 22.2832 30.9243 22.319 30.8802C22.3636 30.8204 22.4055 30.7591 22.4586 30.7072C22.5033 30.6646 22.5631 30.6329 22.6139 30.596C22.6709 30.5513 22.7223 30.503 22.7871 30.4677H22.7893L41.7016 20.1981C41.9405 20.0684 42.2123 20 42.4889 20C42.7656 20 43.0373 20.0684 43.2763 20.1981L62.1897 30.4677H62.1936C62.2562 30.5051 62.3098 30.5513 62.3668 30.5939C62.4176 30.6313 62.4746 30.6646 62.5198 30.7056C62.5751 30.7591 62.6148 30.8204 62.6617 30.8802C62.6952 30.9243 62.7405 30.9633 62.7678 31.0116C62.8131 31.0859 62.8388 31.1638 62.8706 31.2418C62.8863 31.2844 62.9136 31.3233 62.9254 31.368C62.9617 31.4948 62.9801 31.6252 62.9807 31.7561V69.9157L78.7408 61.3574V41.849C78.7408 41.7191 78.7604 41.5877 78.7961 41.4635C78.8101 41.4189 78.8352 41.3799 78.8514 41.3373C78.8827 41.2594 78.9101 41.1793 78.9537 41.1071C78.9833 41.0588 79.0263 41.0199 79.0598 40.9752C79.1073 40.9159 79.1464 40.8546 79.2017 40.8027C79.2469 40.7601 79.3039 40.7284 79.3553 40.691C79.4139 40.6468 79.4653 40.5985 79.5285 40.5632H79.5307L98.4458 30.2931C98.6845 30.1631 98.9562 30.0946 99.2328 30.0946C99.5095 30.0946 99.7811 30.1631 100.02 30.2931L118.933 40.5632C119 40.6006 119.051 40.6463 119.11 40.6894C119.16 40.7263 119.217 40.7601 119.262 40.8006C119.317 40.8546 119.356 40.9159 119.404 40.9752C119.439 41.0199 119.482 41.0583 119.51 41.1071C119.555 41.1799 119.581 41.2594 119.612 41.3373C119.63 41.3799 119.656 41.4189 119.668 41.4635ZM116.57 61.3574V44.4223L109.951 48.0153L100.808 52.9805V69.9157L116.572 61.3574H116.57ZM97.6565 91.9921V75.046L88.6626 79.8907L62.979 93.7149V110.82L97.6565 91.9921ZM25.1527 34.3267V91.9921L59.8263 110.819V93.7164L41.7122 84.048L41.7066 84.0443L41.6982 84.0407C41.6374 84.0074 41.5865 83.9591 41.529 83.9181C41.4798 83.8812 41.4229 83.8516 41.3798 83.8105L41.3759 83.8053C41.3245 83.7586 41.2888 83.7014 41.2458 83.649C41.2067 83.5991 41.1592 83.5565 41.1279 83.5045L41.1257 83.4988C41.0899 83.4432 41.0682 83.3762 41.043 83.3133C41.0173 83.2577 40.9838 83.2058 40.9682 83.146V83.144C40.9486 83.0738 40.9447 82.9995 40.9363 82.9268C40.9285 82.8712 40.9129 82.8156 40.9129 82.76V42.8855L31.7715 37.9183L25.1527 34.3283V34.3267ZM42.4914 23.201L26.7335 31.7566L42.4875 40.3112L58.2438 31.7545L42.4875 23.2015L42.4914 23.201ZM50.6866 76.5901L59.8285 71.627V34.3267L53.2092 37.9203L44.0661 42.885V80.1858L50.6866 76.5901ZM99.2334 33.2965L83.4766 41.8516L99.2334 50.4062L114.987 41.8495L99.2334 33.2965ZM97.6565 52.9805L88.5129 48.0153L81.8946 44.4223V61.3574L91.036 66.3205L97.6565 69.9157V52.9805ZM61.401 91.1442L84.5117 78.7004L96.0645 72.4827L80.32 63.9333L62.1919 73.7763L45.6698 82.747L61.401 91.1442Z" fill="#FF2D20"/>
</g>
<defs>
<clipPath id="clip0_147_723">
<rect width="143" height="133" fill="white"/>
</clipPath>
</defs>
</svg>
