<svg width="143" height="133" viewBox="0 0 143 133" fill="none" xmlns="http://www.w3.org/2000/svg">
<g clip-path="url(#clip0_146_670)">
<path d="M109.484 0H33.5156C15.0055 0 0 13.9561 0 31.1719V101.828C0 119.044 15.0055 133 33.5156 133H109.484C127.995 133 143 119.044 143 101.828V31.1719C143 13.9561 127.995 0 109.484 0Z" fill="#9B7A67"/>
<path d="M71.5005 76.3457C77.2563 76.3457 81.9217 72.006 81.9217 66.6533C81.9217 61.3006 77.2563 56.9609 71.5005 56.9609C65.7453 56.9609 61.0794 61.3006 61.0794 66.6533C61.0794 72.006 65.7453 76.3457 71.5005 76.3457Z" fill="#00D8FF"/>
<path d="M71.5011 46.9464C85.4928 46.9464 98.4907 48.8136 108.291 51.9521C120.099 55.7327 127.359 61.4637 127.359 66.6533C127.359 72.0611 119.665 78.1495 106.985 82.0569C97.3981 85.0109 84.7828 86.5529 71.5011 86.5529C57.8837 86.5529 44.9886 85.1055 35.2936 82.0241C23.028 78.125 15.6406 71.9582 15.6406 66.6533C15.6406 61.5058 22.5728 55.819 34.215 52.0441C44.0518 48.8541 57.3704 46.9464 71.4989 46.9464H71.5011Z" stroke="#00D8FF" stroke-width="8.911"/>
<path d="M53.0558 56.8565C60.0461 45.5837 68.278 36.044 76.0972 29.7161C85.5174 22.091 94.4828 19.1047 99.3158 21.6967C104.353 24.3982 106.18 33.6396 103.485 45.8081C101.448 55.0074 96.5809 65.9415 89.9453 76.6428C83.1422 87.6143 75.3526 97.2807 67.6401 103.55C57.8809 111.485 48.4457 114.356 43.505 111.706C38.7106 109.136 36.8773 100.709 39.1776 89.443C41.1209 79.9236 45.998 68.2399 53.0536 56.8565H53.0558Z" stroke="#00D8FF" stroke-width="8.911"/>
<path d="M53.0731 76.6714C46.0633 65.4111 41.2907 54.0115 39.2988 44.5508C36.9007 33.1518 38.5961 24.4367 43.4251 21.8369C48.4575 19.1271 57.9776 22.2702 67.9664 30.5193C75.5185 36.7558 83.2735 46.137 89.928 56.8279C96.7507 67.789 101.864 78.8939 103.853 88.2393C106.37 100.066 104.333 109.102 99.3967 111.759C94.6074 114.338 85.8425 111.608 76.4966 104.128C68.6004 97.8085 60.1522 88.0439 53.0731 76.6714Z" stroke="#00D8FF" stroke-width="8.911"/>
</g>
<defs>
<clipPath id="clip0_146_670">
<rect width="143" height="133" fill="white"/>
</clipPath>
</defs>
</svg>
