<svg width="143" height="133" viewBox="0 0 143 133" fill="none" xmlns="http://www.w3.org/2000/svg">
<g clip-path="url(#clip0_147_720)">
<path d="M109.484 0H33.5156C15.0055 0 0 13.9561 0 31.1719V101.828C0 119.044 15.0055 133 33.5156 133H109.484C127.995 133 143 119.044 143 101.828V31.1719C143 13.9561 127.995 0 109.484 0Z" fill="#9B7A67"/>
<path fill-rule="evenodd" clip-rule="evenodd" d="M45.9609 57.7031C49.2891 45.2344 57.6099 39 70.9219 39C90.8906 39 93.3867 53.0273 103.371 55.3652C110.028 56.9243 115.852 54.5865 120.844 48.3516C117.516 60.8198 109.195 67.0547 95.8828 67.0547C75.9141 67.0547 73.418 53.0273 63.4336 50.6895C56.7768 49.1309 50.9531 51.4688 45.9609 57.7031ZM21 85.7578C24.3281 73.2896 32.6484 67.0547 45.9609 67.0547C65.9297 67.0547 68.4258 81.082 78.4102 83.4199C85.067 84.979 90.8906 82.6411 95.8828 76.4062C92.5552 88.8745 84.2338 95.1094 70.9219 95.1094C50.9531 95.1094 48.457 81.082 38.4727 78.7441C31.8164 77.185 25.9922 79.5229 21 85.7578Z" fill="url(#paint0_linear_147_720)"/>
</g>
<defs>
<linearGradient id="paint0_linear_147_720" x1="47.9023" y1="39" x2="86.9171" y2="99.3184" gradientUnits="userSpaceOnUse">
<stop stop-color="#32B1C1"/>
<stop offset="1" stop-color="#14C6B7"/>
</linearGradient>
<clipPath id="clip0_147_720">
<rect width="143" height="133" fill="white"/>
</clipPath>
</defs>
</svg>
